<svg width="40" height="36" viewBox="0 0 40 36" fill="none" xmlns="http://www.w3.org/2000/svg">
<path fill-rule="evenodd" clip-rule="evenodd" d="M39.9286 11.8815C37.8561 11.7475 35.7755 13.5022 35.4846 15.6303C35.4547 15.8489 35.4308 16.0683 35.3968 16.3473C35.0951 16.3473 34.7869 16.3686 34.4832 16.3411C34.1922 16.3149 34.0795 16.4288 34.0119 16.7032C33.4778 18.8717 32.6267 20.9123 31.519 22.8503C30.8239 24.0664 30.1106 25.2745 29.4768 26.5224C28.56 28.3274 28.0811 30.2864 27.6045 32.2414C27.5062 32.6448 27.4146 33.0507 27.2908 33.4464C26.9806 34.4382 26.0648 35.0878 25.0881 35.0287C24.024 34.9642 23.1828 34.255 23.0113 33.1945C22.6777 31.1314 22.3813 29.0623 22.0686 26.9958C21.8938 25.8407 21.7312 24.6834 21.5371 23.5315C21.3925 22.6746 20.77 22.158 19.9518 22.1625C19.1538 22.1667 18.5262 22.6831 18.3943 23.5174C18.0455 25.7227 17.7228 27.9321 17.3889 30.1398C17.2374 31.1409 17.0985 32.1443 16.9273 33.1421C16.7372 34.2495 15.9026 34.98 14.8156 35.0301C13.8197 35.076 12.9135 34.4193 12.6221 33.3848C12.2213 31.9618 11.8815 30.5214 11.4662 29.1028C11.0531 27.6919 10.4598 26.3476 9.72836 25.0731C8.68233 23.2503 7.54573 21.478 6.79668 19.4982C6.03526 17.4854 5.45368 15.4231 5.3151 13.2732C5.20601 11.5788 5.08363 9.86083 5.23942 8.17857C5.65384 3.70583 9.70501 0.493687 14.1675 0.946355C15.3763 1.06893 16.5036 1.42006 17.5343 2.06474C19.1466 3.07323 20.7431 3.06065 22.3756 2.07994C26.5918 -0.45311 32.0054 1.24917 34.0403 5.7364C34.1499 5.97803 34.2743 6.06921 34.5326 6.04848C34.8138 6.02584 35.0984 6.04325 35.3724 6.04325C35.974 9.05865 37.4327 10.4927 39.9283 10.5557C39.9286 10.9977 39.9286 11.4397 39.9286 11.8815ZM29.6435 10.5667C31.1708 10.4905 32.3858 9.88548 33.2649 8.66948C33.3724 8.52063 33.4287 8.28354 33.4064 8.09987C32.9393 4.26981 29.0329 1.51335 25.2631 2.31503C24.2785 2.52445 23.4088 2.96031 22.5507 3.45163C21.8999 3.82419 21.1928 4.02133 20.4444 4.08544C19.1528 4.19614 17.9825 3.8585 16.8876 3.18393C15.4326 2.28745 13.8496 2.04985 12.1702 2.28735C9.43691 2.6736 6.88374 5.14666 6.56542 7.88451C6.25908 10.5192 6.42553 13.149 6.99786 15.7448C7.59393 18.4482 8.72057 20.9235 10.1595 23.2808C10.8534 24.4175 11.4495 25.6212 12.0049 26.8333C12.8852 28.7549 13.2907 30.8287 13.8066 32.865C13.9575 33.4606 14.2904 33.7478 14.7945 33.7259C15.2932 33.7042 15.591 33.3908 15.6846 32.7708C16.1515 29.6774 16.6211 26.5843 17.0787 23.4896C17.3046 21.9626 18.4025 20.9276 19.8989 20.8632C21.28 20.8038 22.5245 21.7699 22.7859 23.2502C23.1672 25.4097 23.457 27.5853 23.7851 29.7543C23.9423 30.7939 24.0922 31.8347 24.2561 32.8733C24.338 33.3927 24.6632 33.6994 25.1208 33.7247C25.5908 33.7508 25.9334 33.4966 26.0864 32.9895C26.165 32.7291 26.2269 32.4631 26.2846 32.1969C27.017 28.8214 28.1942 25.6325 30.081 22.7105C31.6182 20.3298 32.5148 17.6878 33.1307 14.9248C33.3752 13.8284 33.0316 13.1687 32.1627 12.6402C31.9415 12.5057 31.7236 12.3468 31.4817 12.2687C30.8841 12.0759 30.2733 11.9233 29.6432 11.7477C29.6435 11.4012 29.6435 11.0017 29.6435 10.5667ZM34.7752 13.7265C35.3823 12.612 36.1957 11.8028 37.2938 11.2003C36.1853 10.6063 35.386 9.78072 34.7717 8.68961C34.1669 9.80165 33.3481 10.6098 32.2612 11.2039C33.3533 11.7988 34.1631 12.6005 34.7752 13.7265Z" fill="white"/>
<path fill-rule="evenodd" clip-rule="evenodd" d="M0 27.3228C1.52506 27.2367 2.78233 26.6408 3.68595 25.3786C4.23 24.6186 4.47304 23.7549 4.51913 22.8157C4.94332 22.8157 5.34184 22.8157 5.75617 22.8157C6.0462 25.517 7.53574 27.0286 10.2709 27.3411C10.2709 27.7299 10.2709 28.1369 10.2709 28.5479C7.57267 28.8512 6.05969 30.3396 5.75908 33.0723C5.36046 33.0723 4.95278 33.0723 4.51883 33.0723C4.47304 32.1385 4.23 31.2747 3.68595 30.5147C2.78233 29.2526 1.52506 28.6567 0 28.5706C0 28.1545 0 27.7387 0 27.3228ZM5.15123 25.4229C4.54439 26.547 3.72842 27.3396 2.63771 27.9508C3.74935 28.5497 4.54741 29.3746 5.15838 30.4597C5.75697 29.3473 6.57445 28.5558 7.66174 27.9458C6.56831 27.3383 5.75767 26.5402 5.15123 25.4229Z" fill="white"/>
<path fill-rule="evenodd" clip-rule="evenodd" d="M11.1401 22.3715C9.34814 19.5521 8.27292 16.5285 7.87158 13.2173C8.28168 13.1658 8.67588 13.1161 9.14092 13.0577C9.52445 16.152 10.5338 19.0234 12.2205 21.6763C11.854 21.9121 11.5186 22.128 11.1401 22.3715Z" fill="white"/>
<path fill-rule="evenodd" clip-rule="evenodd" d="M15.4863 5.30095C15.721 4.95284 15.9442 4.62165 16.1822 4.26841C18.6999 5.77254 21.207 5.78401 23.7422 4.2663C23.9774 4.61229 24.2067 4.94942 24.435 5.28545C22.1441 7.03413 18.1942 7.24235 15.4863 5.30095Z" fill="white"/>
<path fill-rule="evenodd" clip-rule="evenodd" d="M8.99823 11.8059C8.60253 11.8311 8.20511 11.8565 7.76562 11.8844C7.76562 11.4351 7.76562 11.0167 7.76562 10.5768C8.16103 10.5768 8.55794 10.5768 8.99823 10.5768C8.99823 10.9666 8.99823 11.3594 8.99823 11.8059Z" fill="white"/>
</svg>
