<svg width="40" height="34" viewBox="0 0 40 34" fill="none" xmlns="http://www.w3.org/2000/svg">
<path fill-rule="evenodd" clip-rule="evenodd" d="M40.0001 18.25C39.8963 18.9692 39.8215 19.6939 39.6837 20.4065C39.1312 23.2645 37.9736 25.8291 35.7447 27.767C33.8609 29.4048 31.6499 29.7752 29.3188 28.8839C27.067 28.023 25.734 26.3346 25.3051 23.9522C25.1341 23.0023 25.2359 22.0637 25.4809 21.1233C24.8575 21.2749 24.5458 21.7095 24.5424 22.4314C24.536 23.8375 24.5404 25.2438 24.5404 26.6499C24.5403 28.3557 24.5417 30.0615 24.539 31.7671C24.5378 32.5326 24.1896 33.0953 23.4946 33.4079C22.8248 33.7094 22.1939 33.585 21.6392 33.1146C21.2257 32.764 21.0498 32.2892 21.0508 31.7613C21.0572 28.4677 21.0106 25.1721 21.11 21.8811C21.1666 20.0047 22.2379 18.694 23.9506 17.924C24.0806 17.8655 24.2127 17.8116 24.4301 17.7186C22.4264 17.0356 20.9797 15.7861 20.0019 13.888C19.021 15.7697 17.5864 17.0376 15.6434 17.6884C16.1504 17.9793 16.6649 18.2062 17.1003 18.5372C18.3677 19.5008 18.946 20.8259 18.9511 22.4C18.961 25.486 18.9456 28.5718 18.9575 31.6578C18.9637 33.2799 17.3971 33.9719 16.3184 33.3173C15.7068 32.9461 15.4534 32.384 15.4553 31.6762C15.4623 29.2284 15.458 26.7805 15.4579 24.3326C15.4579 23.6945 15.4642 23.0565 15.4558 22.4186C15.4466 21.7145 15.177 21.3278 14.6001 21.124C14.6554 21.8298 14.7713 22.55 14.7577 23.2678C14.7012 26.24 12.2385 28.9071 9.27919 29.2637C7.9212 29.4274 6.63791 29.2147 5.42385 28.5817C4.98307 28.3518 4.83464 28.0609 5.00123 27.7224C5.16508 27.3893 5.48791 27.3102 5.93885 27.5341C6.85586 27.9897 7.80998 28.2048 8.84045 28.1227C11.5364 27.9077 13.628 25.6332 13.6043 22.9172C13.593 21.6144 13.1526 20.478 12.2985 19.4956C12.0095 19.1633 11.74 18.814 11.4431 18.4497C10.9781 18.7169 10.6417 19.1304 10.3756 19.6107C10.2124 19.9054 9.9804 20.0584 9.63541 19.9625C9.27938 19.8634 9.12422 19.471 9.31776 19.1095C9.69243 18.4095 10.1925 17.8198 10.8851 17.4093C11.3586 17.1287 11.364 16.7949 10.9018 16.5245C10.2071 16.118 9.70542 15.5303 9.32733 14.8313C9.1499 14.5033 9.23017 14.1849 9.5109 14.0135C9.78539 13.8461 10.1244 13.9202 10.3176 14.2366C10.6479 14.7776 11.0175 15.2715 11.5968 15.5676C12.8904 14.3305 13.6907 12.8879 13.6032 11.0233C13.4946 8.70825 11.6069 6.56762 9.31336 6.21599C7.11179 5.87842 5.41272 6.71976 4.04116 8.39998C2.3621 10.457 1.55143 12.8515 1.26522 15.4481C1.01964 17.6757 1.23954 19.8637 1.9386 21.9976C2.32968 23.1916 2.86743 24.3128 3.6116 25.33C3.69607 25.4456 3.78708 25.5565 3.86852 25.6741C4.11986 26.0372 4.10092 26.3583 3.8194 26.5744C3.54374 26.786 3.18693 26.7315 2.94418 26.3784C2.50281 25.7363 2.04221 25.0986 1.68443 24.4098C0.738023 22.5878 0.227227 20.6338 0.0700135 18.5868C0.0612252 18.4733 0.0240214 18.362 0 18.2496C0 17.5205 0 16.7912 0 16.0621C0.103019 15.3435 0.178793 14.6197 0.31384 13.9072C0.850806 11.0745 1.99827 8.53659 4.17572 6.5893C6.04958 4.91347 8.26472 4.50706 10.6161 5.37905C12.9193 6.23327 14.2891 7.94641 14.6968 10.3832C14.9202 11.7179 14.7062 12.998 14.0943 14.2084C14.0479 14.2999 14.0067 14.3941 13.9334 14.5505C14.9197 14.2954 15.7955 13.9277 16.3424 13.1133C16.9422 12.2203 17.49 11.2817 17.9503 10.3106C18.1796 9.827 18.2363 9.22793 18.2446 8.67925C18.2768 6.55786 18.253 4.43568 18.2603 2.31379C18.2635 1.367 18.7382 0.71911 19.5555 0.502235C20.6052 0.223548 21.6746 0.95366 21.7161 2.04351C21.7647 3.31732 21.7347 4.59426 21.7429 5.86983C21.7501 7.00196 21.7629 8.13399 21.7743 9.26611C21.775 9.33095 21.7835 9.39599 21.7914 9.46053C21.9294 10.5929 23.5202 13.2586 24.4828 13.8727C24.9442 14.1671 25.4719 14.3574 25.9697 14.5947C25.9895 14.5679 26.0093 14.5409 26.0291 14.514C25.9913 14.4243 25.9591 14.3316 25.9152 14.2449C23.921 10.3177 26.3699 5.62757 30.7425 5.03856C32.9499 4.74112 34.813 5.46156 36.3362 7.07705C36.4702 7.21903 36.5977 7.36716 36.7286 7.51197C37.0863 7.90754 37.1281 8.23593 36.854 8.49938C36.5777 8.76489 36.2447 8.67202 35.849 8.29218C35.3355 7.79945 34.8437 7.25438 34.2487 6.88165C32.0986 5.535 29.2829 6.03388 27.6123 7.99367C25.9881 9.89897 25.9906 12.7976 27.6197 14.7065C27.8642 14.993 28.1152 15.274 28.377 15.5732C28.8722 15.342 29.2206 14.9526 29.5149 14.5047C29.572 14.4179 29.6164 14.3226 29.6763 14.2378C29.892 13.9326 30.2086 13.8455 30.4852 14.0107C30.7665 14.1787 30.8509 14.5012 30.6749 14.8269C30.2973 15.5256 29.7968 16.1144 29.1025 16.5213C28.6415 16.7916 28.6429 17.1302 29.11 17.406C29.8031 17.8154 30.302 18.4056 30.6809 19.1028C30.8552 19.4234 30.7603 19.7572 30.4779 19.9164C30.1928 20.0771 29.8892 19.9783 29.6682 19.6835C29.3373 19.2423 28.9905 18.8133 28.6177 18.3375C27.884 19.384 26.9998 20.1704 26.6382 21.3338C25.9082 23.6824 26.8383 26.1714 28.969 27.4414C31.0263 28.6676 33.695 28.2795 35.3779 26.5342C37.1365 24.7105 38.1165 22.5054 38.559 20.0482C39.0648 17.2407 38.8801 14.477 37.8884 11.7863C37.7537 11.4211 37.5794 11.0706 37.4355 10.7086C37.28 10.3175 37.396 9.99525 37.725 9.86089C38.0352 9.73424 38.333 9.87251 38.5079 10.2437C39.3261 11.9802 39.7902 13.8096 39.9353 15.7221C39.9479 15.8882 39.978 16.0529 39.9998 16.2183C40.0001 16.8958 40.0001 17.5729 40.0001 18.25ZM27.5518 17.5864C27.5824 17.4196 27.615 17.3068 27.622 17.1925C27.6571 16.6006 27.4661 16.3148 26.9178 16.1222C26.2681 15.894 25.6169 15.6698 24.9691 15.4364C23.8117 15.0193 22.9142 14.2823 22.2903 13.2214C21.9278 12.6051 21.5778 11.9813 21.2292 11.3568C20.8634 10.7012 20.6175 10.0048 20.6032 9.24707C20.5828 8.16738 20.5762 7.0873 20.5713 6.00732C20.5656 4.75782 20.5746 3.50803 20.5636 2.25862C20.5601 1.85788 20.3105 1.60526 19.9821 1.61434C19.6656 1.62303 19.4512 1.86608 19.4297 2.24661C19.423 2.3634 19.427 2.48097 19.427 2.59805C19.4269 4.61564 19.4545 6.63382 19.4114 8.65054C19.397 9.32822 19.3122 10.0456 19.0648 10.6673C18.7165 11.5421 18.1995 12.3521 17.7312 13.1764C17.1092 14.2712 16.1909 15.0238 15.0029 15.4444C14.2803 15.7003 13.5554 15.9499 12.8354 16.2133C12.724 16.254 12.5892 16.3324 12.5425 16.4302C12.3737 16.784 12.3124 17.1569 12.4647 17.5594C13.5164 17.188 14.5492 16.8364 15.5723 16.4587C16.8888 15.9728 17.9062 15.114 18.6328 13.9146C18.8888 13.4921 19.1169 13.0525 19.3789 12.634C19.7005 12.1203 20.2919 12.117 20.6169 12.6269C20.8402 12.9773 21.0351 13.3461 21.2402 13.7082C21.8663 14.8147 22.715 15.7129 23.8869 16.214C25.0768 16.7231 26.3116 17.1271 27.5518 17.5864ZM13.1221 18.5976C13.5364 19.2363 13.9705 19.7472 14.7811 19.9468C16.0354 20.2557 16.6273 21.1558 16.6288 22.458C16.6322 25.4514 16.6298 28.4448 16.6301 31.4382C16.6301 31.5683 16.6256 31.699 16.6361 31.8284C16.6629 32.1624 16.8527 32.3665 17.1811 32.3798C17.5133 32.3936 17.7085 32.1953 17.7618 31.8674C17.7762 31.7781 17.7811 31.6863 17.7811 31.5957C17.782 28.5373 17.7871 25.4788 17.7794 22.4203C17.7758 20.9786 17.1897 19.8369 15.8978 19.1533C15.3531 18.8653 14.7266 18.7353 14.1467 18.5091C13.7909 18.3703 13.4665 18.3838 13.1221 18.5976ZM26.8868 18.6025C26.539 18.3875 26.2136 18.3614 25.8584 18.5071C25.5711 18.6251 25.2664 18.7014 24.9689 18.7941C23.1465 19.3616 22.2219 20.6109 22.2193 22.5317C22.2152 25.525 22.2175 28.5183 22.2201 31.5116C22.2202 31.6665 22.1916 31.866 22.2729 31.9662C22.413 32.139 22.6151 32.3317 22.8169 32.3668C23.0955 32.4151 23.2989 32.2031 23.3526 31.9111C23.3783 31.772 23.3677 31.6258 23.3678 31.4828C23.3685 28.4635 23.3651 25.4441 23.37 22.4248C23.372 21.1807 23.9764 20.344 25.1344 19.9528C25.3927 19.8654 25.657 19.795 25.9132 19.7022C26.0178 19.6643 26.1344 19.6087 26.2008 19.5255C26.435 19.2328 26.6499 18.9246 26.8868 18.6025Z" fill="white"/>
</svg>
