<svg width="70" height="70" viewBox="0 0 70 70" fill="none" xmlns="http://www.w3.org/2000/svg">
<path fill-rule="evenodd" clip-rule="evenodd" d="M26.3863 0C27.4284 0.63427 28.4623 1.28221 29.5141 1.90026C32.2408 3.5028 35.013 5.03114 37.7 6.6973C47.3628 12.6894 52.9669 21.3588 54.3407 32.6327C54.7297 35.8256 54.5246 39.0907 54.5908 42.3227C54.5961 42.5869 54.5915 42.8512 54.5915 42.9699C56.088 42.7623 57.5148 42.4073 58.9446 42.3938C64.4296 42.3426 69.076 46.4157 69.8764 51.8488C69.8953 51.9779 69.9575 52.1006 69.9994 52.2264C69.9994 53.0468 69.9994 53.867 69.9994 54.6873C69.9551 54.8349 69.8926 54.9795 69.8698 55.1303C69.5951 56.9434 68.9074 58.5846 67.82 60.0577C67.3907 60.6396 66.779 60.778 66.2879 60.425C65.7958 60.0717 65.7495 59.4801 66.1652 58.8555C66.1905 58.8176 66.2166 58.7802 66.2427 58.743C67.6653 56.7089 68.1911 54.4719 67.827 52.0096C67.12 47.2264 62.3284 43.6983 57.5928 44.4963C52.4568 45.3615 49.0209 50.0908 49.9575 55.0056C51.1132 61.071 57.4537 64.2494 62.986 61.537C63.825 61.1259 64.3743 61.2267 64.6813 61.8484C64.978 62.4493 64.7109 62.9814 63.8817 63.3898C62.2407 64.198 60.5034 64.6719 58.6743 64.5375C57.3295 64.4387 55.9985 64.1506 54.5908 63.9362C54.5908 64.0527 54.5908 64.2713 54.5908 64.4897C54.5908 65.8795 54.5706 67.2695 54.5996 68.6585C54.6123 69.2731 54.4151 69.7187 53.8665 70C53.6386 70 53.4107 70 53.1828 70C52.636 69.6255 52.5225 69.0893 52.5314 68.4598C52.5558 66.7067 52.5294 64.9528 52.5474 63.1995C52.5518 62.7794 52.443 62.5047 52.0904 62.2287C46.3271 57.7166 46.3466 49.1908 52.1039 44.6589C52.3055 44.5001 52.5219 44.1996 52.5205 43.9666C52.4971 40.4387 52.6885 36.8861 52.3411 33.3879C51.3057 22.9697 46.3205 14.8001 37.5727 9.06118C33.7543 6.55637 29.7091 4.39687 25.7617 2.0895C25.2795 1.80764 24.8401 1.48805 24.9958 0.874378C25.0767 0.555328 25.3692 0.289879 25.5659 0.000182301C25.8394 -1.32226e-08 26.1128 0 26.3863 0Z" fill="white"/>
<path fill-rule="evenodd" clip-rule="evenodd" d="M41.9727 69.9998C41.4782 69.5914 41.3697 69.0621 41.371 68.437C41.3863 60.4653 41.3944 52.4936 41.369 44.522C41.3645 43.087 41.8866 42.0131 42.9792 41.0888C45.5487 38.9153 46.9502 36.1536 46.8873 32.7339C46.8785 32.259 46.8195 31.7773 46.7188 31.313C46.4517 30.0798 45.4215 29.1952 44.1779 29.0854C42.8995 28.9726 41.8405 29.6836 41.2811 30.9213C40.5338 32.5755 39.8551 34.2797 38.9215 35.8263C36.9938 39.0197 34.2577 41.3913 30.9135 43.0454C30.1044 43.4456 29.5965 43.9985 29.6552 44.9531C29.7124 45.8858 30.3788 46.577 31.3195 46.6149C32.0927 46.6461 32.8679 46.6288 33.6422 46.631C35.7949 46.6368 37.3273 48.1227 37.3309 50.2586C37.3415 56.4083 37.3282 62.5579 37.3453 68.7075C37.347 69.3061 37.1175 69.7012 36.6402 70C36.4123 70 36.1844 70 35.9565 70C35.4256 69.6587 35.2724 69.1724 35.2741 68.5493C35.2909 62.5807 35.2847 56.6119 35.2837 50.6431C35.2836 49.156 34.809 48.6838 33.323 48.682C32.6622 48.6813 32.0015 48.6887 31.3412 48.6716C29.5233 48.6251 28.1325 47.4991 27.7006 45.7387C27.2701 43.9845 28.0163 42.2434 29.638 41.4122C31.3713 40.5238 32.9926 39.4901 34.4083 38.1439C36.666 35.997 38.2376 33.4167 39.2542 30.4872C39.8141 28.8741 40.8708 27.7509 42.5019 27.2333C45.3743 26.3219 48.381 28.2641 48.7983 31.3102C49.4227 35.8686 47.7746 39.5732 44.402 42.5619C43.7028 43.1816 43.414 43.821 43.4169 44.7407C43.4416 52.6459 43.4272 60.551 43.4386 68.4561C43.4396 69.0833 43.3351 69.6218 42.7923 69.9998C42.5196 69.9998 42.2461 69.9998 41.9727 69.9998Z" fill="white"/>
<path fill-rule="evenodd" clip-rule="evenodd" d="M0 2.1873C0.752774 1.25604 1.22679 1.23562 2.10427 2.11292C9.43329 9.43993 16.7599 16.7693 24.0891 24.0962C25.94 25.9466 26.6342 28.1412 26.0689 30.7107C25.8233 31.8268 26.1542 32.7524 27.0366 33.4403C27.9008 34.1141 28.888 34.206 29.8641 33.7099C30.894 33.1865 31.3609 32.3017 31.3215 31.1386C31.2663 29.503 31.8761 28.9149 33.514 28.9683C34.6382 29.0048 35.5162 28.5455 36.0495 27.5523C36.555 26.6106 36.4911 25.6469 35.883 24.7724C35.2375 23.8442 34.2892 23.4323 33.1983 23.6843C30.3545 24.3412 28.0567 23.4497 26.1117 21.3837C25.472 20.704 24.7894 20.0648 24.1355 19.3983C23.5694 18.8213 23.526 18.2382 23.9967 17.7837C24.4385 17.3571 25.0209 17.4014 25.5613 17.931C26.3746 18.7283 27.1671 19.5463 27.9814 20.3425C29.2993 21.6309 30.8404 22.1078 32.6718 21.7011C35.4139 21.0922 38.0194 22.9319 38.3942 25.6927C38.7598 28.3842 36.7009 30.8489 33.9425 31.0223C33.7844 31.0321 33.6262 31.0388 33.4375 31.0487C33.3771 31.5008 33.3543 31.9533 33.253 32.3872C32.6557 34.9418 30.2293 36.4787 27.6545 35.9509C25.1818 35.4441 23.5123 32.9648 24.0468 30.4421C24.4753 28.4216 23.9167 26.8046 22.472 25.3663C15.2094 18.1347 7.97004 10.8791 0.727433 3.62667C0.457608 3.35648 0.241201 3.03287 0 2.73406C0 2.55193 0 2.36962 0 2.1873Z" fill="white"/>
<path fill-rule="evenodd" clip-rule="evenodd" d="M0 15.3124C0.309934 14.805 0.720687 14.4557 1.34803 14.6634C1.93709 14.8584 2.01348 15.3647 2.06981 15.9252C2.7606 22.7862 5.93924 28.2098 12.0334 31.457C18.8598 35.0944 22.9411 40.7503 25.4297 47.8221C25.5429 48.1437 25.6507 48.4675 25.7535 48.7925C25.9992 49.5686 25.7945 50.1227 25.1945 50.319C24.5759 50.5214 24.1099 50.2055 23.8082 49.4591C23.0335 47.5431 22.3477 45.5805 21.4237 43.7381C19.1904 39.2843 15.8845 35.8734 11.4386 33.5042C5.8747 30.5391 2.28275 25.9182 0.654507 19.8105C0.380307 18.7817 0.215313 17.7239 0 16.6796C0 16.2238 0 15.7682 0 15.3124Z" fill="white"/>
<path fill-rule="evenodd" clip-rule="evenodd" d="M7.51954 0C7.79356 0.235732 8.08417 0.455238 8.33922 0.70993C12.9479 5.3119 17.5525 9.91788 22.1575 14.5235C22.2864 14.6524 22.4222 14.7754 22.5386 14.9149C22.9291 15.3838 22.926 15.9335 22.5395 16.3319C22.1511 16.732 21.5986 16.7515 21.1223 16.3736C20.9982 16.275 20.8899 16.1557 20.7772 16.0431C16.1237 11.3895 11.4699 6.73595 6.81727 2.0813C5.98519 1.24903 5.9912 0.7958 6.83586 0C7.06376 0 7.29165 0 7.51954 0Z" fill="white"/>
<path fill-rule="evenodd" clip-rule="evenodd" d="M27.3438 69.9998C26.8003 69.6696 26.6594 69.1794 26.6466 68.5595C26.5427 63.5488 26.0577 58.5787 24.9739 53.677C24.8003 52.8916 25.0674 52.3545 25.6807 52.2223C26.3212 52.0843 26.7746 52.4304 26.9558 53.2143C27.8583 57.1231 28.3246 61.0919 28.5657 65.0902C28.6353 66.2478 28.6399 67.4091 28.7179 68.5659C28.7606 69.199 28.5726 69.6731 28.0275 69.9998C27.7996 69.9998 27.5717 69.9998 27.3438 69.9998Z" fill="white"/>
<path fill-rule="evenodd" clip-rule="evenodd" d="M62.185 50.1761C62.8716 50.1761 63.4818 50.166 64.0916 50.1782C65.1616 50.1998 65.8039 50.793 65.8409 51.8617C65.8781 52.931 65.879 54.0036 65.8411 55.0726C65.8032 56.1425 65.1585 56.7264 64.0831 56.741C63.4741 56.7494 62.865 56.7425 62.1852 56.7425C62.1852 57.4207 62.1979 58.0298 62.1824 58.6382C62.1533 59.7747 61.5172 60.4073 60.3845 60.4214C59.3823 60.4338 58.3799 60.4343 57.3779 60.4212C56.2689 60.4064 55.6425 59.7869 55.6175 58.6892C55.6035 58.0772 55.615 57.4646 55.615 56.7428C54.9661 56.7428 54.3628 56.7468 53.7597 56.7419C52.5738 56.7321 51.9528 56.1188 51.9432 54.9344C51.9348 53.9095 51.9289 52.8841 51.9464 51.8595C51.9639 50.843 52.5993 50.21 53.6199 50.1806C54.2536 50.1624 54.8882 50.1771 55.6142 50.1771C55.6142 49.5181 55.6062 48.9108 55.616 48.3041C55.6348 47.1489 56.2427 46.5221 57.3807 46.5048C58.3827 46.4897 59.3852 46.4902 60.3872 46.5048C61.5201 46.521 62.1535 47.1557 62.1824 48.2928C62.1974 48.884 62.185 49.476 62.185 50.1761ZM57.6623 48.5881C57.6623 49.27 57.6815 49.8838 57.6581 50.4962C57.616 51.5983 56.9808 52.2085 55.8811 52.2245C55.2727 52.2333 54.664 52.2262 54.035 52.2262C54.035 53.0783 54.035 53.8593 54.035 54.6923C54.6425 54.6923 55.2075 54.6872 55.7725 54.6934C57.029 54.7075 57.6439 55.3248 57.6627 56.5944C57.6713 57.1744 57.6642 57.7547 57.6642 58.3337C58.5391 58.3337 59.3024 58.3337 60.1356 58.3337C60.1356 57.6865 60.1274 57.077 60.1374 56.4679C60.1562 55.3334 60.7806 54.7151 61.9289 54.6945C62.5341 54.6838 63.1396 54.6925 63.7438 54.6925C63.7438 53.8194 63.7438 53.0404 63.7438 52.2258C63.0718 52.2258 62.4581 52.236 61.8448 52.2236C60.7852 52.2023 60.1619 51.5777 60.1389 50.5124C60.1254 49.8823 60.1363 49.2515 60.1363 48.5879C59.2871 48.5881 58.5243 48.5881 57.6623 48.5881Z" fill="white"/>
</svg>
