<svg width="33" height="30" viewBox="0 0 33 30" fill="none" xmlns="http://www.w3.org/2000/svg">
<path fill-rule="evenodd" clip-rule="evenodd" d="M32.549 12.3695C32.4594 12.6229 32.3924 12.8858 32.2757 13.1276C32.0358 13.6251 31.6368 13.9876 31.0819 14.2268C31.491 15.0885 31.3653 15.8942 30.7714 16.6162C30.1776 17.338 29.3901 17.6768 28.3649 17.5162C28.1952 18.3606 27.6855 18.9718 26.8492 19.3254C26.0153 19.678 25.2018 19.5972 24.396 19.151C23.9789 19.8807 23.3619 20.34 22.5078 20.4973C21.6451 20.6562 20.9043 20.4006 20.2251 19.8818C19.7101 20.5181 19.0593 20.9092 18.1953 20.9758C18.3301 21.5425 18.6272 22.0055 19.1301 22.2825C20.1968 22.8699 21.287 23.4261 22.4933 23.7301C25.5867 24.5099 28.924 22.4379 29.3769 19.459C29.4218 19.1643 29.4325 18.865 29.4735 18.5695C29.5173 18.2543 29.7252 18.0827 30.0151 18.101C30.2994 18.119 30.4952 18.3275 30.4906 18.6367C30.4508 21.3801 28.5974 23.7494 25.857 24.537C25.0807 24.7601 24.2494 24.8143 23.4923 24.938C23.7299 25.3573 24.0451 25.8377 24.282 26.3502C24.6102 27.0595 24.7703 27.8134 24.6763 28.5914C24.5825 29.3672 23.9013 29.9583 23.0733 29.9888C22.6948 30.0028 22.3026 30.0169 21.9367 29.9429C21.1653 29.7869 20.6446 29.1991 20.6107 28.4559C20.5728 27.6271 20.1479 27.0866 19.3623 26.7431C18.6723 26.4414 17.9813 26.1344 17.3234 25.7768C15.3862 24.7238 14.3052 23.1314 14.0479 21.0449C14.0284 20.8862 13.9984 20.7804 13.7995 20.7218C12.2246 20.2579 11.5044 18.8241 12.1028 17.3724C12.1176 17.3366 12.1289 17.2997 12.1566 17.2213C11.2708 17.1831 10.5546 16.8507 10.0272 16.2018C8.28881 17.3355 7.12054 17.1766 5.76912 15.6206C5.06298 16.0371 4.30225 16.1096 3.53333 15.8027C2.57459 15.4199 1.97214 14.7676 1.91136 13.7448C1.90683 13.6682 1.83437 13.545 1.76977 13.5292C0.768438 13.2848 0.267535 12.6275 0.0486282 11.7275C0.0420332 11.7006 0.0166067 11.6777 0 11.6529C0 11.414 0 11.175 0 10.9361C0.153513 10.323 0.428676 9.77854 1.01452 9.41382C0.451719 8.61921 0.440196 7.81886 0.870143 7.01051C1.30057 6.20127 2.01529 5.76286 2.98841 5.69328C2.89529 4.79101 3.27502 4.10346 3.97369 3.57412C4.67991 3.03903 5.49666 2.92906 6.35822 3.1685C6.88479 1.44191 8.86909 0.781986 10.3492 1.63961C10.7494 0.898904 11.4043 0.453553 12.2642 0.312594C13.1241 0.171561 13.8904 0.407338 14.5294 0.967438C15.6586 -0.304547 17.6271 -0.362034 18.8047 1.03232C19.4672 0.487151 20.2441 0.288032 21.1025 0.456615C21.962 0.625347 22.5819 1.109 22.9687 1.86777C23.7619 1.43227 24.5689 1.42033 25.3648 1.75399C26.1758 2.09391 26.6844 2.69455 26.8604 3.54351C27.7701 3.33924 28.5668 3.51253 29.2456 4.0845C29.9318 4.66267 30.2164 5.39165 30.0854 6.27779C31.0663 6.42443 31.7275 6.94197 32.0647 7.7869C32.4038 8.63683 32.3097 9.44734 31.6406 10.172C32.1389 10.5712 32.3746 11.096 32.5488 11.6528C32.549 11.8917 32.549 12.1306 32.549 12.3695ZM14.0579 2.70941C14.0622 2.70926 14.0665 2.70904 14.0708 2.70889C14.0708 2.48983 14.0762 2.27063 14.0678 2.05195C14.0648 1.97744 14.0482 1.88912 14.0022 1.83268C13.3313 1.0088 11.9729 1.05591 11.367 1.92339C11.2453 2.09765 11.1464 2.28579 11.0314 2.46445C10.8077 2.81199 10.5638 2.87359 10.1781 2.68149C9.97252 2.57905 9.77579 2.45885 9.56419 2.36949C8.68237 1.99708 7.68827 2.43145 7.4031 3.2993C7.34485 3.47662 7.36829 3.60795 7.49264 3.76152C7.63066 3.93182 7.74357 4.13325 7.81238 4.3376C8.07745 5.12444 7.82891 5.7922 7.26595 6.39986C6.86207 6.8358 6.91212 7.39628 7.33905 7.7987C7.76336 8.19865 8.35246 8.22605 8.83206 7.86768C8.93155 7.79332 9.02745 7.7147 9.12884 7.64281C9.91683 7.0836 11.0977 7.19387 11.7527 7.88687C12.595 8.77809 12.5122 10.1008 11.3071 10.9644C11.0938 11.1173 10.8573 11.0932 10.669 10.9208C10.471 10.7394 10.4411 10.5156 10.6145 10.3017C10.7358 10.1522 10.8893 10.0261 11.0184 9.88171C11.3796 9.47825 11.3615 8.88903 10.9824 8.52163C10.6091 8.15998 10.0755 8.1552 9.61131 8.50969C9.54552 8.55986 9.48235 8.61324 9.41489 8.66132C8.85495 9.06045 8.23152 9.18521 7.55589 9.00401C6.02418 8.59316 5.48156 6.90733 6.5014 5.74957C7.21907 4.93481 6.98983 4.28549 5.90507 4.06069C4.87911 3.84805 3.95915 4.55934 4.01104 5.56412C4.06443 6.59981 3.96924 6.64393 2.99954 6.66327C2.00488 6.68305 1.1631 7.98243 1.8648 8.86932C1.92773 8.94884 1.97842 9.03708 2.03349 9.12205C2.30126 9.53529 2.26701 9.7194 1.86956 10.0125C1.72797 10.1169 1.57525 10.2109 1.44772 10.3288C1.03899 10.7068 0.944279 11.1697 1.09167 11.6754C1.22548 12.1344 1.4981 12.4971 2.02936 12.5883C2.8782 12.7339 2.96346 12.8038 2.95424 13.6639C2.94336 14.6754 4.1856 15.3321 5.13242 14.8457C5.30882 14.7552 5.4768 14.65 5.65399 14.561C6.00424 14.3851 6.24404 14.4464 6.46064 14.7649C6.5575 14.9073 6.64268 15.0566 6.7362 15.2011C7.27747 16.0369 8.35969 16.2121 9.1677 15.5928C9.33996 15.4608 9.49888 15.3132 9.67162 15.1818C9.97896 14.948 10.2349 14.9683 10.5031 15.2456C10.6385 15.3855 10.7636 15.5339 10.8944 15.6777C11.3152 16.1401 11.843 16.3281 12.4832 16.2165C12.7015 16.1784 12.9165 16.1238 13.1346 16.0846C13.4911 16.0206 13.7023 16.1323 13.827 16.4531C13.8958 16.6302 13.9469 16.8134 14.013 16.9915C14.2795 17.7089 14.8182 18.1431 15.6177 18.2095C16.1458 18.2533 16.4115 18.4635 16.5334 18.9419C16.6785 19.5104 17.0866 19.8727 17.7061 19.9903C18.4611 20.1338 19.4038 19.6345 19.671 18.9564C19.6948 18.8962 19.6857 18.8195 19.6747 18.7528C19.5853 18.2101 19.1865 17.9192 18.4658 17.8665C17.2069 17.7743 16.3637 16.633 16.714 15.4938C17.0301 14.4653 18.0014 13.9064 19.269 14.0537C19.5345 14.0845 19.6848 14.2678 19.6886 14.5094C19.6927 14.7664 19.535 14.9461 19.2573 14.9862C19.0705 15.0132 18.8765 14.9921 18.6866 15.0046C18.1042 15.0429 17.6708 15.4664 17.6644 15.9963C17.6581 16.5206 18.0253 16.8624 18.6512 16.9151C19.8625 17.0171 20.5888 17.6961 20.7211 18.8439C20.7305 18.9257 20.756 19.0243 20.813 19.0798C21.6002 19.8477 22.854 19.7039 23.4332 18.7843C23.5248 18.6388 23.6085 18.4889 23.7021 18.3446C23.919 18.0103 24.1672 17.9421 24.5309 18.1185C24.7 18.2006 24.8621 18.2953 25.0303 18.3794C26.0163 18.8724 27.1366 18.3658 27.3369 17.3375C27.5015 16.4924 27.5579 16.4525 28.4509 16.5499C28.493 16.5545 28.5378 16.5509 28.577 16.5632C29.2972 16.7903 30.2875 16.0595 30.2801 15.1695C30.2758 14.6553 30.1231 14.5009 29.5901 14.5056C28.8046 14.5125 28.1349 14.2889 27.6468 13.6793C27.34 13.2961 27.2742 12.8474 27.2175 12.3892C27.1567 11.897 26.7693 11.5628 26.2479 11.5163C25.5132 11.4508 25.0545 11.8666 24.9879 12.6584C24.888 13.8445 23.6774 14.6291 22.4636 14.3025C21.4323 14.025 20.7824 13.1573 20.9254 11.9296C20.9563 11.6644 21.1846 11.4962 21.4519 11.5076C21.7162 11.5189 21.9083 11.7025 21.9338 11.9747C21.956 12.2117 21.94 12.4564 21.9982 12.6848C22.1169 13.15 22.5951 13.4474 23.0994 13.4075C23.5864 13.369 23.9217 13.0343 23.973 12.5368C23.9822 12.4477 23.9949 12.3589 24.0081 12.2702C24.122 11.503 24.5658 10.9598 25.3264 10.6866C26.1014 10.4081 26.8447 10.5053 27.5044 11.0061C28.0372 11.4106 28.2261 11.9617 28.2828 12.58C28.3355 13.1538 28.7301 13.493 29.3458 13.5259C29.5359 13.536 29.7271 13.532 29.9177 13.5301C30.5985 13.523 31.0843 13.2193 31.3717 12.649C31.6496 12.0975 31.5295 11.4614 31.0845 11.0142C30.9399 10.8688 30.7823 10.7349 30.6375 10.5896C30.3674 10.3186 30.3623 10.0885 30.6157 9.7978C30.723 9.67468 30.8631 9.56889 30.9392 9.43121C31.053 9.22508 31.186 9.00155 31.2014 8.77869C31.2587 7.94809 30.7586 7.38411 29.8805 7.22814C29.0199 7.07531 28.9813 7.02791 29.0549 6.21314C29.0594 6.16357 29.0648 6.11407 29.0704 6.06457C29.1847 5.04411 28.2542 4.26182 27.1797 4.47513C27.0141 4.50798 26.8477 4.53784 26.6828 4.57315C25.8735 4.74614 25.5964 5.15304 25.6436 5.92331C25.6652 6.27608 25.6069 6.67043 25.4513 6.98826C25.035 7.83856 24.0288 8.22478 23.073 7.9463C21.9967 7.63265 21.5564 6.77376 21.5307 5.87418C21.524 5.63706 21.6919 5.4864 21.9379 5.44429C22.1851 5.40195 22.3773 5.49849 22.4818 5.71396C22.5292 5.81161 22.5379 5.92517 22.5708 6.0297C22.6276 6.20963 22.6615 6.40248 22.7549 6.56434C22.9932 6.97669 23.5198 7.15983 23.9825 7.01865C24.4498 6.87605 24.6973 6.48744 24.6339 5.98677C24.5221 5.10488 24.8343 4.39501 25.6357 3.91465C25.8399 3.79228 25.8481 3.68373 25.7885 3.50828C25.5234 2.72778 24.5459 2.28646 23.7353 2.59235C23.5102 2.67723 23.2999 2.79609 23.0809 2.89539C22.6854 3.07465 22.4489 3.00559 22.2393 2.64894C22.1473 2.4923 22.0663 2.32999 21.9743 2.17335C21.4718 1.31834 20.3841 1.10519 19.5622 1.70082C19.3946 1.8223 19.2375 1.95713 19.0669 2.07465C18.7705 2.27877 18.5264 2.25585 18.2841 1.9985C18.137 1.84216 18.0092 1.66992 17.8669 1.50933C17.4094 0.992752 16.6903 0.810283 16.0321 1.07615C15.5957 1.25242 15.1907 1.52911 15.1224 1.99066C15.0518 2.46878 15.0953 2.9646 15.1193 3.45138C15.144 3.95049 15.5002 4.30027 16.0253 4.38232C16.2439 4.41652 16.4704 4.41838 16.6832 4.47109C17.7026 4.72344 18.3865 5.61145 18.2849 6.53194C18.1627 7.63855 17.4022 8.34849 16.2554 8.42644C15.6147 8.46996 15.2255 8.82154 15.2333 9.34984C15.2415 9.90628 15.6989 10.3243 16.319 10.3421C16.4882 10.347 16.6604 10.335 16.8257 10.3614C17.1116 10.407 17.2845 10.6175 17.2538 10.868C17.2216 11.1303 17.0572 11.2861 16.7752 11.2988C16.5326 11.3098 16.2871 11.3088 16.0453 11.2878C14.6373 11.1652 13.7615 9.63063 14.4367 8.46668C14.8138 7.81676 15.4136 7.50662 16.1949 7.46519C16.8378 7.43107 17.2608 7.00006 17.2602 6.41629C17.2596 5.84305 16.8487 5.43063 16.2235 5.37463C16.1287 5.36612 16.0342 5.35365 15.9397 5.34185C14.9187 5.21433 14.2025 4.52948 14.1029 3.57286C14.0733 3.28654 14.0721 2.99738 14.0579 2.70941ZM13.1573 17.6271C12.6321 18.4315 13.0415 19.4944 13.9948 19.7637C14.2968 19.8491 14.6404 19.8176 14.9647 19.8163C15.2303 19.8153 15.4296 19.8989 15.507 20.1396C15.5865 20.3865 15.5098 20.6109 15.2443 20.7095C15.0566 20.7792 15.0481 20.883 15.0694 21.0324C15.307 22.6906 16.1551 23.9949 17.685 24.8562C18.4905 25.3097 19.37 25.6455 20.192 26.0751C21.0443 26.5205 21.5213 27.2292 21.6079 28.1457C21.6739 28.8446 21.8742 29.0365 22.6156 29.037C22.7003 29.037 22.7852 29.0385 22.8699 29.0365C23.4215 29.0235 23.6977 28.7391 23.6653 28.2151C23.559 26.4889 22.6976 25.1946 21.1049 24.345C20.462 24.002 19.7816 23.7212 19.118 23.4124C18.0547 22.9178 17.3805 22.1418 17.1411 21.0373C17.117 20.9259 16.9952 20.7987 16.8827 20.7445C16.2913 20.4596 15.8496 20.0505 15.6342 19.4554C15.5597 19.2496 15.4407 19.1617 15.2179 19.1234C14.4388 18.9896 13.8388 18.5904 13.3942 17.9797C13.3126 17.8678 13.2397 17.7504 13.1573 17.6271Z" fill="white"/>
</svg>
