<svg width="32" height="30" viewBox="0 0 32 30" fill="none" xmlns="http://www.w3.org/2000/svg">
<path fill-rule="evenodd" clip-rule="evenodd" d="M15.708 30C12.4105 30 9.11283 30.0001 5.81528 29.9997C5.18381 29.9996 5.06283 29.886 5.0624 29.2958C5.0618 28.6218 5.07156 27.9476 5.05417 27.274C5.05074 27.1423 4.97911 26.9786 4.87921 26.8875C2.31879 24.5563 0.727255 21.7426 0.184805 18.4341C-0.789395 12.492 2.14142 6.5989 7.71527 3.49314C9.07692 2.73443 10.5308 2.18625 12.0717 1.84683C12.2701 1.8032 12.3695 1.73524 12.3758 1.53542C12.3815 1.35565 12.4203 1.17627 12.4526 0.997947C12.572 0.339149 12.9704 0.0106781 13.6803 0.00407646C14.5047 -0.00365233 15.3291 0.00198317 16.1535 0.00198317C16.6781 0.00198317 17.2028 -0.00267907 17.7273 0.00335904C18.4471 0.0116514 18.9137 0.3245 18.9463 0.985633C18.9779 1.62688 19.2905 1.80505 19.9001 1.98184C26.1262 3.78692 29.998 7.70251 31.1478 13.7213C32.1134 18.7758 30.4419 23.1715 26.5696 26.8081C26.4207 26.9481 26.3521 27.0815 26.3552 27.2784C26.3659 27.9422 26.3596 28.6062 26.3592 29.2702C26.359 29.8958 26.2467 29.9998 25.5685 29.9998C22.2817 30.0001 18.9949 30 15.708 30ZM24.0603 21.436C24.1181 21.5656 24.2976 21.5794 24.3794 21.4634C27.4622 17.0918 26.0515 11.3141 21.9673 8.45236C21.0368 7.80036 19.616 8.64172 18.4798 8.64172C16.9164 8.6418 15.353 8.6418 13.7895 8.64172C13.3933 8.64172 12.9967 8.65154 12.601 8.63817C11.8859 8.61394 11.4609 8.18991 11.4572 7.51646C11.4567 7.4468 11.3803 7.40304 11.3161 7.43019C5.75849 9.78257 3.59111 16.5198 7.01873 21.434C7.10788 21.5618 7.30332 21.5451 7.36723 21.403C8.07307 19.8295 8.77849 18.2557 9.48408 16.6821C9.6659 16.2766 9.75706 16.2202 10.2348 16.2196C11.0916 16.2187 11.7855 15.5249 11.7855 14.6681C11.7856 14.3351 11.7859 14.0049 11.7869 13.6748C11.7881 13.273 11.9434 13.1121 12.3548 13.1114C14.5928 13.1079 16.8308 13.108 19.0689 13.1114C19.468 13.1122 19.6322 13.2727 19.6343 13.6469C19.6383 14.3914 19.6356 15.1361 19.6356 15.8806C19.6357 16.0678 19.7873 16.2195 19.9744 16.2194C20.3948 16.2193 20.7921 16.2191 21.1894 16.2196C21.6662 16.2203 21.7552 16.2751 21.9381 16.6844C22.6457 18.2682 23.3525 19.8523 24.0603 21.436ZM7.63507 23.204C7.01987 24.5916 8.03768 26.153 9.55547 26.153C14.6964 26.153 19.8188 26.153 24.9557 26.153C25.0243 26.153 25.0784 26.0836 25.0505 26.021C23.7591 23.1219 22.4656 20.2236 21.1795 17.3224C21.1076 17.1603 21.0091 17.1243 20.8401 17.1264C19.8235 17.1389 18.8067 17.1502 17.79 17.149C15.4244 17.1463 13.0587 17.1416 10.6933 17.1219C10.4086 17.1196 10.2879 17.2081 10.1834 17.447C9.34262 19.3694 8.48588 21.2856 7.63507 23.204ZM22.3199 3.84349C20.9211 3.19164 19.5066 4.43967 19.7212 5.96788C19.7532 6.19556 19.8496 6.30513 20.0762 6.39595C26.873 9.11954 29.1514 16.9162 24.7926 22.5271C24.679 22.6734 24.6529 22.7857 24.7319 22.9577C25.1515 23.8703 25.5553 24.7894 25.9654 25.706C26.0377 25.8677 26.2546 25.8997 26.3768 25.7715C29.866 22.1082 31.2514 17.8898 30.0468 13.0865C28.9518 8.72046 26.2934 5.69519 22.3199 3.84349ZM3.22621 23.5208C4.1103 24.8531 5.98373 24.4666 6.65196 23.014C6.74543 22.8108 6.74159 22.6704 6.5931 22.476C4.66569 19.9513 3.95727 17.1433 4.63382 14.1038C5.44839 10.4442 7.75374 7.87294 11.4012 6.37267C11.5642 6.30561 11.6532 6.23477 11.6756 6.05386C11.7374 5.55512 11.831 5.05991 11.9075 4.56269C12.0388 3.70947 11.2737 2.99593 10.4598 3.28381C6.79066 4.5817 2.95405 7.66119 1.52169 12.5406C0.325733 16.6149 1.28349 20.593 3.22621 23.5208ZM25.3754 28.095C25.3754 27.5599 24.9416 27.126 24.4064 27.126C18.594 27.126 12.8102 27.126 7.02539 27.126C6.49023 27.126 6.05639 27.5683 6.05639 28.1035C6.05639 28.6387 6.49024 29.064 7.0254 29.064C12.8283 29.064 18.6121 29.064 24.4064 29.064C24.9416 29.064 25.3754 28.6302 25.3754 28.095ZM15.691 7.71588C16.6749 7.71588 17.659 7.71692 18.6429 7.71531C18.9983 7.71474 19.0277 7.6815 18.9758 7.3457C18.6579 5.29049 18.3363 3.23568 18.0239 1.17974C17.9933 0.978469 17.9051 0.910034 17.6931 0.911081C16.3775 0.917199 15.062 0.917766 13.7464 0.910521C13.5214 0.909313 13.4284 0.976131 13.3959 1.19286C13.0875 3.25008 12.7716 5.30627 12.4482 7.36148C12.4069 7.62466 12.4736 7.72433 12.7712 7.72055C13.7443 7.70799 14.7177 7.7158 15.691 7.71588ZM18.6586 15.1172C18.6586 14.5243 18.1779 14.0426 17.585 14.0426C16.3314 14.0426 15.0881 14.0426 13.847 14.0426C13.2541 14.0426 12.7734 14.532 12.7734 15.1249C12.7734 15.7179 13.2541 16.1898 13.847 16.1898C15.0967 16.1898 16.3401 16.1898 17.585 16.1898C18.1779 16.1898 18.6586 15.7101 18.6586 15.1172Z" fill="white"/>
<path fill-rule="evenodd" clip-rule="evenodd" d="M11.7926 18.6552C12.1297 18.6611 12.3326 18.9805 12.1801 19.3297C11.8076 20.1835 11.4242 21.033 11.0452 21.8843C10.6951 22.6709 10.3467 23.4581 9.99451 24.2438C9.8414 24.5855 9.58804 24.7104 9.30204 24.5941C9.03052 24.4836 8.95024 24.2296 9.09641 23.9014C9.82186 22.2729 10.5514 20.6461 11.276 19.0174C11.3709 18.8043 11.5097 18.6599 11.7926 18.6552Z" fill="white"/>
<path fill-rule="evenodd" clip-rule="evenodd" d="M21.9368 24.6361C21.6463 24.6226 21.5177 24.4566 21.4203 24.236C20.8267 22.8927 20.2265 21.5522 19.6289 20.2106C19.497 19.9145 19.3616 19.6197 19.2372 19.3209C19.1203 19.0404 19.2198 18.786 19.4716 18.6893C19.73 18.5901 19.9971 18.6945 20.1214 18.9711C20.8684 20.6346 21.6124 22.2992 22.3489 23.9669C22.5017 24.3133 22.2832 24.6346 21.9368 24.6361Z" fill="white"/>
<path fill-rule="evenodd" clip-rule="evenodd" d="M15.7153 5.5216C14.8067 5.51854 14.0603 4.82184 14.0547 3.97136C14.0491 3.11283 14.8234 2.38956 15.7319 2.40478C16.6425 2.41999 17.3764 3.11935 17.3761 3.97144C17.3757 4.81547 16.616 5.52458 15.7153 5.5216ZM16.4087 3.9815C16.4143 3.63194 16.0949 3.32891 15.717 3.32545C15.3373 3.32199 15.0174 3.62043 15.0219 3.97401C15.0262 4.31544 15.3313 4.60632 15.6954 4.61598C16.0736 4.62612 16.4031 4.333 16.4087 3.9815Z" fill="white"/>
</svg>
