<svg width="16" height="16" viewBox="0 0 16 16" fill="none" xmlns="http://www.w3.org/2000/svg">
<path d="M7.16528 1C3.76583 1 1 3.76583 1 7.16528C1 10.5649 3.76583 13.3306 7.16528 13.3306C10.5649 13.3306 13.3306 10.5649 13.3306 7.16528C13.3306 3.76583 10.5649 1 7.16528 1ZM7.16528 12.1924C4.39337 12.1924 2.13821 9.93721 2.13821 7.1653C2.13821 4.3934 4.39337 2.13821 7.16528 2.13821C9.93718 2.13821 12.1923 4.39337 12.1923 7.16528C12.1923 9.93718 9.93718 12.1924 7.16528 12.1924Z" fill="#3239BB" stroke="#6039C5"/>
<path d="M14.833 14.0282L11.5701 10.7654C11.3478 10.5431 10.9877 10.5431 10.7654 10.7654C10.5431 10.9875 10.5431 11.348 10.7654 11.5701L14.0282 14.833C14.1394 14.9441 14.2849 14.9997 14.4306 14.9997C14.5761 14.9997 14.7218 14.9441 14.833 14.833C15.0553 14.6108 15.0553 14.2504 14.833 14.0282Z" fill="#3239BB" stroke="#6039C5"/>
</svg>
