<svg width="24" height="24" viewBox="0 0 24 24" fill="none" xmlns="http://www.w3.org/2000/svg">
<path d="M22.8141 12C22.8141 10.9665 24.223 9.75051 23.9681 8.79284C23.7028 7.80244 21.8686 7.45968 21.3674 6.59158C20.8663 5.72347 21.4725 3.95454 20.7578 3.23973C20.043 2.52492 18.288 3.14155 17.4062 2.63171C16.5244 2.12187 16.2006 0.296099 15.2069 0.0308448C14.2493 -0.224075 13.0385 1.18487 12 1.18487C10.9615 1.18487 9.75071 -0.224075 8.79313 0.0308448C7.80282 0.296099 7.46009 2.13049 6.59206 2.63171C5.72404 3.13294 3.95527 2.52664 3.24052 3.24145C2.52578 3.95626 3.14235 5.71141 2.63256 6.5933C2.12277 7.47518 0.29716 7.799 0.0319301 8.79284C-0.228133 9.75051 1.18585 10.9665 1.18585 12C1.18585 13.0335 -0.222966 14.2495 0.0319301 15.2072C0.29716 16.1976 2.13138 16.5403 2.63256 17.4084C3.13374 18.2765 2.5275 20.0455 3.24225 20.7603C3.95699 21.4751 5.71198 20.8585 6.59379 21.3683C7.47559 21.8781 7.79938 23.7039 8.79313 23.9692C9.75071 24.2241 10.9615 22.8151 12 22.8151C13.0385 22.8151 14.2493 24.2241 15.2069 23.9692C16.1972 23.7039 16.5399 21.8695 17.4079 21.3683C18.276 20.8671 20.0447 21.4734 20.7595 20.7586C21.4742 20.0437 20.8576 18.2886 21.3674 17.4067C21.8772 16.5248 23.7028 16.201 23.9681 15.2072C24.2281 14.2495 22.8141 13.0335 22.8141 12Z" fill="#28A745"/>
<path d="M17.3332 8L9.99984 15.3333L6.6665 12" stroke="white" stroke-width="2" stroke-linecap="round" stroke-linejoin="round"/>
</svg>
