<svg width="32" height="30" viewBox="0 0 32 30" fill="none" xmlns="http://www.w3.org/2000/svg">
<path fill-rule="evenodd" clip-rule="evenodd" d="M14.6542 29.9998C14.5878 29.9556 14.5181 29.9152 14.4558 29.8664C14.2543 29.7082 14.1697 29.5043 14.2394 29.2657C14.3118 29.0177 14.4956 28.8685 14.7699 28.8333C14.8721 28.8202 14.9773 28.8262 15.081 28.8261C17.2 28.8258 19.319 28.8268 21.4379 28.8255C22.5654 28.8248 23.1366 27.9358 22.6113 26.9928C21.4038 24.8254 20.1887 22.6616 18.9865 20.4915C18.8882 20.3141 18.7768 20.2691 18.5778 20.2694C14.2153 20.2744 9.8527 20.2751 5.49019 20.2676C5.26708 20.2672 5.16388 20.3439 5.06792 20.5167C3.87763 22.6596 2.71021 24.8145 1.47219 26.933C0.900158 27.9117 1.6064 28.865 2.68892 28.8403C4.83783 28.7914 6.98874 28.825 9.13889 28.827C9.5081 28.8273 9.7446 28.9831 9.82842 29.2635C9.90633 29.5242 9.78501 29.7613 9.48208 29.9433C9.45738 29.9582 9.43792 29.9808 9.41613 29.9998C6.98408 29.9998 4.55211 29.9998 2.12013 29.9998C2.05403 29.9783 1.98908 29.9525 1.92165 29.9356C1.17158 29.7488 0.605289 29.3415 0.261856 28.6849C0.149762 28.4706 0.0858998 28.234 0 28.0077C0 27.7732 0 27.5389 0 27.3045C0.610945 26.1344 1.19744 24.9523 1.83749 23.7964C3.66226 20.5012 5.51048 17.2173 7.34148 13.9251C7.42805 13.7695 7.47553 13.5763 7.47661 13.4002C7.48676 11.7999 7.48259 10.1995 7.48259 8.55465C7.31869 8.55465 7.16802 8.55512 7.01734 8.55457C6.45762 8.55238 6.2375 8.35103 6.23609 7.83417C6.23435 7.14104 6.23426 6.44783 6.23609 5.7547C6.2375 5.25386 6.46144 5.04008 6.99322 5.03977C9.34137 5.03813 11.6896 5.03898 14.0377 5.03898C15.0455 5.03898 16.0534 5.03758 17.0612 5.03961C17.6122 5.04071 17.8313 5.24995 17.8327 5.77283C17.8344 6.45619 17.8345 7.13963 17.8327 7.823C17.8313 8.34759 17.6141 8.55176 17.0608 8.55457C16.9167 8.55527 16.7725 8.55465 16.5859 8.55465C16.5859 8.67435 16.5859 8.77757 16.5859 8.88078C16.5859 10.3745 16.5798 11.8682 16.593 13.3618C16.5948 13.5653 16.6515 13.7883 16.7517 13.9684C19.0683 18.1334 21.3955 22.2931 23.7178 26.4553C24.4172 27.7086 23.9949 29.1061 22.7267 29.7222C22.4823 29.841 22.2098 29.9087 21.9502 30C19.5182 29.9998 17.0862 29.9998 14.6542 29.9998ZM15.3389 8.57778C13.1119 8.57778 10.9264 8.57778 8.72943 8.57778C8.72943 10.2313 8.72286 11.8617 8.73492 13.4919C8.73741 13.8262 8.65567 14.1168 8.48936 14.4104C7.66013 15.8737 6.84579 17.3445 6.02695 18.8129C5.98039 18.8965 5.93964 18.9828 5.88734 19.0852C9.99664 19.0852 14.073 19.0852 18.1805 19.0852C18.1242 18.9757 18.0826 18.8887 18.0355 18.8044C17.1973 17.3015 16.3521 15.8019 15.5268 14.2927C15.4138 14.086 15.3527 13.833 15.3471 13.5996C15.3263 12.731 15.3388 11.8617 15.3388 10.9926C15.3389 10.1932 15.3389 9.39389 15.3389 8.57778ZM7.4959 7.36138C10.5392 7.36138 13.5542 7.36138 16.5703 7.36138C16.5703 6.97305 16.5703 6.60621 16.5703 6.22686C13.5395 6.22686 10.5244 6.22686 7.4959 6.22686C7.4959 6.60972 7.4959 6.97672 7.4959 7.36138Z" fill="white"/>
<path fill-rule="evenodd" clip-rule="evenodd" d="M31.9265 6.26942C31.3822 7.15351 30.8246 8.03072 30.2998 8.92489C30.0832 9.29376 29.8117 9.45691 29.3543 9.44151C28.5136 9.41331 27.671 9.43753 26.8293 9.43011C26.6563 9.42862 26.5476 9.47261 26.451 9.61544C26.1166 10.1093 25.7596 10.5897 25.4273 11.0848C25.3771 11.1598 25.3702 11.3075 25.4153 11.3842C25.6977 11.8639 25.7621 12.3539 25.5881 12.8808C25.5576 12.973 25.5949 13.1271 25.664 13.1989C25.9497 13.4953 26.2669 13.7646 26.5573 14.0572C26.6883 14.1892 26.7978 14.2092 26.9859 14.1548C27.7546 13.9322 28.4355 14.1042 28.9614 14.6725C29.4872 15.2407 29.5857 15.9031 29.2328 16.5825C28.881 17.2597 28.2707 17.5948 27.4685 17.5721C26.2494 17.5376 25.4075 16.395 25.7825 15.2855C25.8423 15.1085 25.822 15.0056 25.6818 14.8822C25.3709 14.6088 25.0842 14.3108 24.769 14.0421C24.6924 13.9769 24.5294 13.9421 24.4297 13.9693C23.6406 14.1851 22.8669 13.9859 22.3722 13.4192C21.8896 12.8664 21.8108 12.0967 22.1725 11.4705C22.5453 10.8252 23.2703 10.4855 24.0806 10.5574C24.1751 10.5657 24.3183 10.5059 24.3721 10.4337C24.7291 9.954 25.0741 9.46613 25.4059 8.97076C25.4569 8.89442 25.4624 8.74448 25.4168 8.66509C25.0568 8.03869 24.6866 7.41714 24.2994 6.80519C24.2417 6.71393 24.0804 6.63095 23.9654 6.62899C23.0927 6.61446 22.2194 6.61227 21.3467 6.62532C20.9947 6.63056 20.7591 6.50757 20.5857 6.22152C20.1335 5.47573 19.6737 4.73369 19.2006 3.99954C19.11 3.85897 18.9626 3.73216 18.8105 3.64887C18.4254 3.43807 18.0227 3.25554 17.614 3.05536C17.1418 3.41213 16.6104 3.59871 15.9968 3.48518C15.1306 3.325 14.5045 2.65368 14.4678 1.85725C14.4288 1.01293 14.9821 0.296675 15.854 0.060866C15.9124 0.0450829 15.968 0.0204712 16.0249 0C16.2328 0 16.4407 0 16.6486 0C16.6648 0.0117201 16.6792 0.0289851 16.6975 0.0342982C17.7265 0.334959 18.1576 0.859241 18.2063 1.86045C18.2097 1.92781 18.2384 2.02649 18.2898 2.05407C18.6093 2.22558 18.9386 2.38099 19.2745 2.54648C19.712 1.83459 20.1179 1.15443 20.5478 0.488025C20.6663 0.304331 20.8565 0.161504 21.0138 0C22.2611 0 23.5083 0 24.7554 0C24.9172 0.170411 25.1114 0.322381 25.2348 0.514435C25.6632 1.18131 26.0744 1.85827 26.4748 2.54038C26.5759 2.71259 26.6905 2.76267 26.8907 2.76025C27.7413 2.75009 28.5924 2.76603 29.4429 2.75134C29.8193 2.74486 30.0628 2.87995 30.2471 3.18663C30.7972 4.10229 31.3656 5.00817 31.9268 5.91789C31.9265 6.03502 31.9265 6.15222 31.9265 6.26942ZM27.9563 3.95211C27.9563 3.94328 27.9563 3.93453 27.9562 3.9257C27.5722 3.9257 27.1876 3.91515 26.8045 3.93281C26.7038 3.9375 26.5671 4.00595 26.5158 4.08471C26.1316 4.67454 25.7582 5.27102 25.3993 5.87476C25.3468 5.96313 25.3433 6.12385 25.3939 6.21238C25.7567 6.84738 26.1342 7.47527 26.5222 8.09706C26.5719 8.17676 26.7087 8.25278 26.8067 8.2545C27.5537 8.26755 28.3013 8.26841 29.0483 8.25395C29.1542 8.25192 29.3012 8.17011 29.3558 8.08409C29.7438 7.47363 30.118 6.85519 30.4808 6.23129C30.5282 6.14979 30.525 6.00369 30.479 5.91961C30.3039 5.59934 30.1033 5.29125 29.909 4.98051C29.694 4.63672 29.5564 4.15588 29.2358 3.99063C28.9023 3.81858 28.3903 3.95211 27.9563 3.95211ZM22.8594 5.42604C22.8594 5.4337 22.8594 5.44143 22.8595 5.44901C23.2438 5.44901 23.6288 5.45948 24.0122 5.44198C24.1136 5.43729 24.2514 5.37009 24.3027 5.29134C24.6875 4.70103 25.0601 4.10353 25.4213 3.50026C25.4702 3.41845 25.4769 3.26929 25.43 3.18913C25.0652 2.56546 24.6877 1.94804 24.2987 1.33734C24.248 1.25757 24.1105 1.18272 24.0116 1.181C23.2639 1.16803 22.5157 1.16709 21.7681 1.18155C21.6615 1.18358 21.5144 1.26445 21.4591 1.35032C21.0773 1.94226 20.7073 2.54148 20.3542 3.14874C20.2992 3.24312 20.3055 3.41142 20.358 3.51073C20.5193 3.81561 20.7157 4.10424 20.9008 4.39779C21.1174 4.74127 21.2556 5.22258 21.5769 5.3876C21.9118 5.55965 22.4244 5.42604 22.8594 5.42604ZM16.9563 1.76513C16.9598 1.45611 16.6854 1.18678 16.3556 1.17545C16.0126 1.16365 15.7173 1.42994 15.7141 1.75373C15.7111 2.0672 15.9797 2.33153 16.3126 2.34247C16.6557 2.35387 16.9525 2.08759 16.9563 1.76513ZM23.8108 12.8883C24.1409 12.8911 24.4261 12.6348 24.4384 12.3241C24.451 12.0048 24.1634 11.7237 23.8212 11.7211C23.4882 11.7185 23.2074 11.9722 23.1968 12.2852C23.1858 12.6106 23.4654 12.8854 23.8108 12.8883ZM27.5495 15.2364C27.2153 15.2403 26.942 15.4976 26.938 15.8121C26.9339 16.1378 27.2197 16.4077 27.5643 16.4036C27.8946 16.3998 28.1745 16.1375 28.1795 15.8274C28.1848 15.5073 27.8917 15.2324 27.5495 15.2364Z" fill="white"/>
<path fill-rule="evenodd" clip-rule="evenodd" d="M11.8487 29.9998C11.7911 29.9617 11.732 29.9251 11.676 29.885C11.3662 29.663 11.3233 29.2775 11.5785 29.0171C11.8242 28.7664 12.2394 28.7659 12.4872 29.0158C12.7446 29.2755 12.7038 29.6611 12.3944 29.8842C12.3387 29.9244 12.28 29.9613 12.2228 29.9998C12.0981 29.9998 11.9733 29.9998 11.8487 29.9998Z" fill="white"/>
<path fill-rule="evenodd" clip-rule="evenodd" d="M12.0331 16.7567C10.7882 16.7567 9.88052 15.6282 10.2569 14.5225C10.5346 13.7066 11.0217 12.9887 11.5514 12.3004C11.7901 11.9901 12.2533 11.9751 12.4924 12.2794C13.0603 13.0021 13.5865 13.7575 13.8383 14.6356C14.1431 15.6983 13.2247 16.7567 12.0331 16.7567ZM12.0888 13.7881C12.0513 13.789 12.0138 13.7898 11.9762 13.7907C11.7969 14.1504 11.6005 14.5039 11.4444 14.8723C11.3393 15.1203 11.4649 15.3321 11.6885 15.4789C11.9163 15.6286 12.1596 15.6275 12.3843 15.4739C12.6032 15.3241 12.7278 15.1152 12.6185 14.8646C12.4591 14.4992 12.267 14.1464 12.0888 13.7881Z" fill="white"/>
</svg>
