<svg width="32" height="30" viewBox="0 0 32 30" fill="none" xmlns="http://www.w3.org/2000/svg">
<path fill-rule="evenodd" clip-rule="evenodd" d="M18.6304 14.4945C18.1017 14.4945 17.6254 14.4975 17.1492 14.4937C16.6937 14.4901 16.5051 14.3121 16.5015 13.8832C16.4977 13.4359 16.5007 12.9885 16.5007 12.4939C16.027 12.4939 15.5664 12.4887 15.1059 12.4957C14.8126 12.5002 14.547 12.4696 14.4169 12.1749C14.2842 11.8742 14.4761 11.6856 14.6788 11.4955C15.9969 10.2585 17.3011 9.00809 18.6358 7.78712C19.1342 7.33116 19.234 6.84577 19.0739 6.22999C18.8855 5.50574 18.751 4.76665 18.6428 4.02756C18.5897 3.66598 18.8828 3.4177 19.2317 3.50182C19.402 3.54292 19.6301 3.71025 19.6646 3.85565C19.8641 4.69612 20.0111 5.54742 20.1807 6.39414C20.3368 7.17342 20.1038 7.82764 19.5038 8.38406C18.415 9.39369 17.3365 10.4133 16.1845 11.4936C16.4997 11.4936 16.7349 11.4896 16.9701 11.4946C17.3628 11.5029 17.5584 11.6851 17.5636 12.0575C17.5699 12.5242 17.5651 12.991 17.5651 13.4942C18.0746 13.4942 18.5587 13.4922 19.0427 13.4947C19.502 13.4972 19.6889 13.6713 19.6949 14.0979C19.6977 14.2956 19.6953 14.4934 19.6953 14.7664C19.8207 14.6569 19.9049 14.588 19.9838 14.514C20.9564 13.6007 21.9458 12.7023 22.8948 11.7679C23.6234 11.0505 24.4664 10.8522 25.4663 11.0913C26.0344 11.2272 26.6046 11.3668 27.1827 11.4521C29.0267 11.7242 30.706 10.4753 30.8629 8.73847C31.0173 7.0281 29.6187 5.55893 27.7739 5.49365C26.7839 5.45863 26.1221 4.84035 26.08 3.91125C26.0208 2.60207 25.1421 1.50307 23.8529 1.12581C22.5408 0.741803 21.1955 1.15474 20.3226 2.19814C20.225 2.31477 20.0725 2.4741 19.9503 2.47035C19.7552 2.46443 19.5223 2.37939 19.3821 2.25275C19.2041 2.09201 19.2712 1.86607 19.4135 1.68123C20.095 0.796411 21.0037 0.230819 22.1507 0.0567394C24.7634 -0.339943 27.0031 1.3866 27.1453 3.88333C27.1674 4.27084 27.3971 4.47643 27.827 4.49327C29.9888 4.5779 31.7298 6.13469 31.9252 8.15778C32.114 10.1123 30.6987 11.9246 28.6266 12.3888C27.7706 12.5806 26.9316 12.4789 26.0962 12.2798C25.7851 12.2056 25.473 12.1345 25.1634 12.0547C24.5706 11.9018 24.0966 12.0517 23.6622 12.4684C22.3666 13.7117 21.047 14.9327 19.7369 16.1624C19.674 16.2212 19.6213 16.3105 19.5464 16.3328C19.3585 16.3885 19.1506 16.4674 18.9689 16.438C18.7289 16.3991 18.631 16.1902 18.6308 15.9593C18.6302 15.4824 18.6304 15.0055 18.6304 14.4945Z" fill="white"/>
<path fill-rule="evenodd" clip-rule="evenodd" d="M14.904 15.9929C15.415 15.9929 15.8893 15.9909 16.3633 15.9935C16.8432 15.9962 17.03 16.1684 17.0325 16.6144C17.0358 17.1875 17.0225 17.7607 17.038 18.3335C17.0455 18.6078 16.9368 18.8055 16.7349 18.9932C15.5843 20.0633 14.4566 21.1556 13.2891 22.2091C12.7919 22.6577 12.6916 23.1421 12.8571 23.7376C13.0164 24.3104 13.146 24.8908 13.27 25.4714C13.3109 25.6629 13.3153 25.8671 13.298 26.0625C13.2736 26.3397 13.0903 26.4934 12.7917 26.5014C12.4949 26.5092 12.3071 26.3687 12.2512 26.0944C12.083 25.2688 11.9229 24.4417 11.755 23.616C11.5997 22.8521 11.8054 22.1968 12.3947 21.6453C13.5104 20.6013 14.6179 19.5494 15.7392 18.5108C15.9132 18.3497 15.9863 18.19 15.9732 17.9648C15.9551 17.6549 15.9687 17.3434 15.9687 16.9932C15.4733 16.9932 15.0007 16.9946 14.5282 16.9929C14.0241 16.991 13.8424 16.8237 13.84 16.3586C13.8378 15.9211 13.8395 15.4837 13.8395 14.9984C13.393 14.9984 12.9546 14.9882 12.5178 15.007C12.4297 15.0107 12.3391 15.117 12.2628 15.1884C11.1868 16.196 10.0959 17.1904 9.04456 18.2204C8.31432 18.9359 7.47344 19.1375 6.47338 18.8974C5.91617 18.7636 5.357 18.6253 4.79002 18.5401C2.93426 18.2613 1.25809 19.4778 1.07487 21.2142C0.89271 22.9397 2.30233 24.423 4.19216 24.4947C5.15895 24.5314 5.82079 25.1573 5.85637 26.0682C5.90721 27.3727 6.78535 28.4778 8.0744 28.8596C9.38057 29.2464 10.7491 28.8336 11.6055 27.7947C11.8785 27.4635 12.1402 27.391 12.4169 27.5697C12.6884 27.7451 12.7283 28.0203 12.5237 28.3062C11.346 29.9522 8.8372 30.5002 6.99466 29.4967C5.61555 28.7457 4.87475 27.613 4.79108 26.1107C4.76872 25.7096 4.55711 25.5141 4.11958 25.4956C1.75035 25.3955 -0.0460384 23.5964 0.000899027 21.3709C0.0497885 19.0598 2.34697 17.2017 4.78399 17.5299C5.49408 17.6254 6.19264 17.8008 6.89315 17.9535C7.41976 18.0682 7.8421 17.931 8.21858 17.5727C9.37161 16.4754 10.5406 15.3929 11.6919 14.294C11.9207 14.0756 12.1618 13.98 12.4861 13.9897C13.0732 14.0071 13.6614 13.992 14.249 13.9955C14.7075 13.9983 14.8991 14.1756 14.9032 14.6003C14.9074 15.0477 14.904 15.4955 14.904 15.9929Z" fill="white"/>
<path fill-rule="evenodd" clip-rule="evenodd" d="M7.92745 6.91943C8.11973 7.01989 8.27465 7.06499 8.37731 7.15995C9.26096 7.97731 10.1379 8.80126 11.0105 9.62904C11.2567 9.86256 11.2584 10.1387 11.0425 10.3493C10.8164 10.5699 10.5133 10.571 10.2526 10.3284C9.37941 9.51582 8.51315 8.69663 7.64388 7.88035C7.4737 7.72053 7.36785 7.52286 7.49375 7.32036C7.58905 7.16679 7.76996 7.06008 7.92745 6.91943Z" fill="white"/>
<path fill-rule="evenodd" clip-rule="evenodd" d="M24.5569 22.5438C24.4293 22.6852 24.3339 22.8727 24.1799 22.9375C24.0378 22.9974 23.8324 22.9295 23.6562 22.9083C23.6195 22.9039 23.5865 22.8597 23.5554 22.8305C22.6874 22.0152 21.8179 21.2013 20.9555 20.3808C20.8672 20.2968 20.751 20.1553 20.7733 20.0692C20.8207 19.8861 20.9117 19.6801 21.0567 19.5605C21.2401 19.4092 21.4831 19.4706 21.6568 19.6328C22.5584 20.475 23.457 21.3201 24.3492 22.1712C24.435 22.2531 24.4695 22.3827 24.5569 22.5438Z" fill="white"/>
<path fill-rule="evenodd" clip-rule="evenodd" d="M24.7262 17.4953C24.1287 17.4953 23.5311 17.4985 22.9336 17.4942C22.5502 17.4916 22.3465 17.3179 22.3428 17.0061C22.3392 16.6958 22.5479 16.4992 22.918 16.4975C24.1351 16.492 25.3523 16.4925 26.5695 16.4972C26.9374 16.4986 27.1518 16.6967 27.1469 17.0031C27.1419 17.308 26.9286 17.4907 26.5519 17.4939C25.9434 17.4992 25.3348 17.4953 24.7262 17.4953Z" fill="white"/>
<path fill-rule="evenodd" clip-rule="evenodd" d="M14.3723 6.74122C14.3723 7.30322 14.376 7.86522 14.371 8.42722C14.3677 8.80072 14.1686 9.00181 13.8261 8.99472C13.4993 8.98797 13.3106 8.79121 13.3094 8.43247C13.3057 7.30856 13.3058 6.18456 13.3094 5.06056C13.3106 4.6979 13.4957 4.49957 13.8189 4.49123C14.1578 4.48256 14.3672 4.68948 14.3708 5.05531C14.3764 5.61723 14.3723 6.17922 14.3723 6.74122Z" fill="white"/>
<path fill-rule="evenodd" clip-rule="evenodd" d="M7.19078 13.494C6.59293 13.494 5.99489 13.4975 5.39704 13.4928C4.99182 13.4895 4.78304 13.3117 4.78517 12.9884C4.78721 12.6674 4.99768 12.4957 5.4053 12.495C6.59009 12.4928 7.77479 12.4925 8.95958 12.4953C9.35335 12.4962 9.57722 12.6845 9.57686 12.9991C9.5766 13.3117 9.35673 13.4902 8.95124 13.4929C8.36448 13.4971 7.77763 13.4941 7.19078 13.494Z" fill="white"/>
<path fill-rule="evenodd" clip-rule="evenodd" d="M18.6322 23.2453C18.6322 23.8065 18.6358 24.3677 18.6309 24.9289C18.6276 25.2959 18.42 25.5052 18.0846 25.4964C17.7625 25.4879 17.5699 25.2865 17.5686 24.9307C17.5644 23.8083 17.5643 22.6859 17.5687 21.5634C17.5702 21.1981 17.7802 20.9916 18.1194 20.9965C18.443 21.0012 18.6277 21.1983 18.6309 21.5616C18.6358 22.1228 18.6322 22.6841 18.6322 23.2453Z" fill="white"/>
</svg>
