<svg width="36" height="40" viewBox="0 0 36 40" fill="none" xmlns="http://www.w3.org/2000/svg">
<path fill-rule="evenodd" clip-rule="evenodd" d="M15.339 0C15.4988 0.047297 15.6581 0.0968868 15.8186 0.141579C17.4596 0.598089 18.478 1.90553 18.4917 3.60259C18.503 5.00858 18.4942 6.41468 18.4944 7.82077C18.4944 7.96131 18.4944 8.10184 18.4944 8.25707C18.6092 8.26863 18.6838 8.2827 18.7585 8.2828C19.8893 8.28426 21.0197 8.28374 22.2004 8.28374C22.2004 7.71326 22.2168 7.17018 22.1854 6.62991C22.1796 6.53125 21.9894 6.42551 21.8663 6.35457C21.2023 5.97202 20.8755 5.23871 21.0474 4.48936C21.2069 3.79313 21.8627 3.25151 22.5943 3.21182C23.3381 3.1715 24.0278 3.64854 24.2675 4.36945C24.528 5.15266 24.186 5.99911 23.4231 6.37936C23.2156 6.48281 23.1446 6.5923 23.1502 6.81649C23.1648 7.415 23.1579 8.01413 23.1542 8.61305C23.1514 9.09081 23.0061 9.2376 22.5218 9.24302C21.9659 9.24916 21.4099 9.24447 20.8399 9.24447C20.8399 10.0332 20.8399 10.768 20.8399 11.5483C21.3395 11.5483 21.8174 11.5483 22.2954 11.5483C23.0895 11.5483 23.884 11.5366 24.6777 11.5544C24.9674 11.561 25.1335 11.4933 25.2769 11.2108C25.6267 10.5217 26.4283 10.2059 27.1731 10.406C27.8782 10.5953 28.3854 11.2529 28.3954 11.9907C28.406 12.7573 27.9279 13.4117 27.1974 13.6307C26.4379 13.8584 25.6171 13.5229 25.251 12.7916C25.1297 12.5491 24.9889 12.4958 24.7432 12.4977C23.3762 12.5081 22.0091 12.5029 20.6422 12.5025C19.9706 12.5023 19.8661 12.4 19.8657 11.7427C19.8652 10.9258 19.8656 10.1089 19.8656 9.26875C19.4031 9.26875 18.9799 9.26875 18.5255 9.26875C18.5255 11.8886 18.5255 14.4955 18.5255 17.1279C18.8594 17.1279 19.1767 17.1279 19.5414 17.1279C19.5414 16.6805 19.5458 16.2553 19.54 15.83C19.5356 15.5016 19.6409 15.2598 20.0062 15.2368C20.3165 15.2171 20.4906 15.4421 20.4946 15.8485C20.4984 16.2642 20.4954 16.68 20.4954 17.1534C20.9414 17.1534 21.3663 17.1515 21.7914 17.1538C22.3721 17.1568 22.5056 17.29 22.5099 17.864C22.5113 18.0423 22.5101 18.2208 22.5101 18.4374C22.9504 18.4374 23.3508 18.4415 23.7513 18.436C24.0797 18.4315 24.3206 18.5393 24.3466 18.9027C24.369 19.2155 24.1511 19.3843 23.7396 19.388C23.3511 19.3914 22.9624 19.3887 22.5423 19.3887C22.5423 19.8235 22.5423 20.2286 22.5423 20.677C22.9458 20.677 23.3334 20.6734 23.7208 20.678C24.1437 20.6831 24.3482 20.84 24.3503 21.149C24.3525 21.4578 24.136 21.6319 23.7314 21.6365C23.3428 21.641 22.9541 21.6375 22.5335 21.6375C22.5248 21.7872 22.5121 21.9118 22.5111 22.0365C22.5049 22.85 22.4382 22.916 21.6101 22.9163C21.2492 22.9165 20.8885 22.9163 20.4954 22.9163C20.4954 23.353 20.4989 23.7413 20.4943 24.1294C20.4899 24.5024 20.3141 24.717 20.0212 24.721C19.721 24.7251 19.5486 24.5222 19.5429 24.1407C19.5369 23.7527 19.5415 23.3645 19.5415 22.9466C19.1896 22.9466 18.8725 22.9466 18.5245 22.9466C18.5245 25.5619 18.5245 28.1688 18.5245 30.8004C18.9664 30.8004 19.3893 30.8004 19.8405 30.8004C19.8495 30.6778 19.8642 30.566 19.8645 30.4542C19.8667 29.7643 19.8654 29.0742 19.8656 28.3842C19.8658 27.6525 19.9447 27.5722 20.6647 27.572C22.0317 27.5717 23.3987 27.5669 24.7657 27.5767C24.9996 27.5785 25.1284 27.5252 25.2415 27.2946C25.5953 26.5737 26.3773 26.2325 27.1433 26.4211C27.877 26.6016 28.4 27.2869 28.3955 28.0611C28.3911 28.816 27.8746 29.4841 27.1527 29.6693C26.3909 29.8645 25.6049 29.5256 25.2457 28.8078C25.1347 28.5857 25.0166 28.5138 24.7758 28.5159C23.4757 28.5276 22.1756 28.5214 20.8465 28.5214C20.8465 29.2841 20.8465 30.0197 20.8465 30.825C21.3384 30.825 21.8398 30.8246 22.3412 30.8251C23.0672 30.8261 23.1547 30.9126 23.1551 31.6291C23.1553 32.1497 23.1693 32.6711 23.1491 33.1911C23.1389 33.4574 23.2205 33.5938 23.4692 33.7185C24.149 34.0592 24.478 34.8259 24.3111 35.5665C24.15 36.2821 23.4869 36.827 22.736 36.861C22.0158 36.8936 21.3286 36.4154 21.0896 35.7155C20.8182 34.9206 21.1656 34.0719 21.9523 33.6814C22.1491 33.5837 22.2135 33.4806 22.207 33.2711C22.1926 32.793 22.2025 32.3142 22.2025 31.8138C20.9578 31.8138 19.7527 31.8138 18.4943 31.8138C18.4943 31.9443 18.4943 32.0705 18.4943 32.1966C18.4943 33.7589 18.4839 35.3212 18.5061 36.8833C18.5091 37.1018 18.6139 37.3778 18.7687 37.5259C20.4032 39.0887 22.3397 39.3307 24.4213 38.6966C25.7545 38.2906 26.7985 37.4763 27.4235 36.1969C27.555 35.9275 27.7623 35.8347 28.0307 35.7757C29.4518 35.4623 30.6538 34.7918 31.5132 33.5852C32.0108 32.8866 32.2677 32.106 32.2512 31.2453C32.2457 30.9638 32.3084 30.7522 32.5712 30.592C34.3838 29.4876 34.9956 27.7868 34.8996 25.7671C34.8384 24.4843 34.3842 23.3332 33.5831 22.3246C33.3872 22.0781 33.3507 21.83 33.5758 21.5874C34.7847 20.2841 35.0405 18.6898 34.9195 17.0091C34.8082 15.4604 34.3065 14.0344 33.3435 12.7945C32.8403 12.1466 32.2355 11.6217 31.457 11.3278C31.1175 11.1997 31.0283 10.9621 31.0597 10.62C31.308 7.9063 29.5614 5.52156 26.9219 4.96181C26.7697 4.92951 26.5973 4.95128 26.4626 4.88784C26.2527 4.78887 25.9953 4.68323 25.8826 4.50259C25.0136 3.10951 23.8934 2.00418 22.3911 1.30848C22.1027 1.17492 21.9722 0.953856 22.0991 0.642988C22.2114 0.367853 22.4875 0.298576 22.8325 0.458177C24.3123 1.14242 25.4854 2.18702 26.3835 3.53852C26.5682 3.81657 26.7663 3.95784 27.1096 4.02629C29.981 4.59895 32.0471 7.13809 32.0475 10.0829C32.0475 10.4136 32.1453 10.5701 32.4331 10.7367C33.9267 11.6014 34.8208 12.9555 35.3683 14.5475C36.0621 16.5651 36.1684 18.5994 35.3401 20.6112C35.144 21.0869 34.8481 21.5217 34.6442 21.8919C34.9994 22.7845 35.4515 23.6207 35.6642 24.5137C36.2183 26.8405 35.7963 28.9825 34.0224 30.6878C33.5164 31.1743 33.2327 31.6343 33.0717 32.3315C32.5273 34.69 30.8396 35.9597 28.6185 36.6209C28.3634 36.6968 28.2032 36.8079 28.0599 37.0363C26.9751 38.7656 25.3523 39.6369 23.3735 39.9243C23.2464 39.9427 23.1212 39.9743 22.995 39.9999C22.6565 39.9999 22.318 39.9999 21.9795 39.9999C21.5358 39.9091 21.0864 39.8402 20.6498 39.723C19.6406 39.4518 18.7671 38.9326 18.0229 38.1694C17.2777 38.9414 16.4099 39.4485 15.4168 39.7331C15.0324 39.8433 14.6361 39.9123 14.2451 40C13.7764 40 13.3076 40 12.8389 40C12.224 39.8433 11.5907 39.7369 10.9981 39.5195C9.6624 39.0296 8.60426 38.1795 7.86761 36.9414C7.78396 36.8008 7.57936 36.6972 7.41007 36.6483C5.53517 36.1049 4.02687 35.0917 3.21772 33.2601C2.97134 32.7024 2.89674 32.0636 2.78402 31.4544C2.72652 31.1441 2.85559 30.8803 3.22136 30.8388C3.52244 30.8046 3.73966 30.9996 3.74122 31.379C3.7507 33.4857 5.7254 35.2606 7.68301 35.7C7.73364 35.5497 7.78386 35.3943 7.83814 35.2404C8.40289 33.644 9.46124 32.6063 11.1666 32.301C11.5531 32.2318 11.8112 32.3627 11.872 32.6619C11.9313 32.9534 11.7464 33.1696 11.3403 33.2427C9.80013 33.5199 8.98836 34.5182 8.64353 35.9692C8.60843 36.1172 8.63781 36.317 8.71365 36.4489C9.51926 37.8524 10.7942 38.5717 12.3558 38.9332C12.3975 38.7935 12.4305 38.6859 12.4617 38.5779C12.7735 37.4964 13.6053 36.7724 14.614 36.7047C14.9884 36.6797 15.2314 36.8352 15.2341 37.1322C15.237 37.4632 15.0305 37.6067 14.7194 37.6563C13.9407 37.7805 13.5068 38.2132 13.3739 39.0596C13.8233 39.0096 14.2551 38.9874 14.6764 38.9093C15.7004 38.719 16.5994 38.2724 17.3138 37.5016C17.4257 37.381 17.5219 37.1901 17.5231 37.0308C17.5374 35.1433 17.5322 33.2557 17.531 31.3681C17.531 31.3047 17.5171 31.2411 17.5125 31.2014C17.0238 31.1103 16.5397 31.0674 16.0867 30.9255C15.1709 30.6384 14.5092 30.0378 14.1394 29.1412C13.9663 28.7219 14.0476 28.424 14.3645 28.3253C14.7436 28.2071 14.897 28.4511 15.0254 28.7545C15.4372 29.7279 16.3967 30.2613 17.5323 30.1311C17.5323 29.9984 17.5323 29.8595 17.5323 29.7207C17.5323 24.0187 17.5299 18.3167 17.5392 12.6147C17.5396 12.3226 17.453 12.1342 17.2245 11.9601C16.3784 11.3152 15.4992 11.2394 14.564 11.7485C14.4192 11.8273 14.2372 11.9403 14.1027 11.9087C13.9427 11.8711 13.7255 11.7121 13.6976 11.573C13.6658 11.4135 13.7617 11.1376 13.8934 11.0508C14.9062 10.3836 15.9818 10.2275 17.1098 10.765C17.234 10.8242 17.3576 10.8849 17.5139 10.9606C17.5214 10.8041 17.5315 10.6911 17.5315 10.5781C17.5324 8.27385 17.5361 5.96952 17.5309 3.66541C17.5269 1.87969 15.9977 0.660907 14.2383 1.01438C13.9254 1.07731 13.7996 1.23264 13.7866 1.53215C13.7647 2.03106 13.8742 2.48413 14.1932 2.88147C14.4599 3.21348 14.4532 3.45456 14.1929 3.65593C13.9486 3.84481 13.6959 3.77928 13.4306 3.4608C13.0163 2.96325 12.85 2.37402 12.8125 1.68436C11.7747 2.3138 11.0017 3.13514 10.3441 4.11702C10.4231 4.18391 10.4961 4.251 10.5744 4.31132C11.8525 5.29747 12.3311 6.61991 12.2028 8.19436C12.1769 8.512 12.0131 8.70879 11.6696 8.67649C11.3203 8.64368 11.2486 8.41188 11.2413 8.09768C11.2307 7.64586 11.2473 7.17341 11.1191 6.74992C10.9877 6.31519 10.7404 5.89577 10.4651 5.52874C10.0125 4.92576 9.43935 4.73636 8.6551 4.98139C6.31494 5.71231 4.71591 8.00496 4.92583 10.4424C4.97761 11.0436 4.94646 11.0965 4.40484 11.3285C3.62944 11.6606 2.7833 12.42 2.43774 13.0973C2.62474 13.2548 2.82612 13.4003 2.99874 13.574C3.67517 14.255 3.9103 15.0675 3.69579 16.0073C3.6262 16.3126 3.46431 16.5197 3.12813 16.4557C2.80434 16.3941 2.70391 16.1718 2.74714 15.8436C2.87539 14.8723 2.63588 14.3484 1.89934 13.9679C1.49607 14.7206 1.26458 15.5288 1.13717 16.3642C0.927047 17.7411 1.02643 19.089 1.60379 20.3773C1.65682 20.4957 1.72214 20.6088 1.78381 20.7232C2.02009 21.1615 2.28907 21.4244 2.88352 21.4493C4.77456 21.5282 6.072 22.7125 6.3661 24.4857C6.43037 24.8736 6.31682 25.0905 6.01814 25.1503C5.71696 25.2106 5.51266 25.0485 5.42693 24.6812C5.07699 23.1824 4.24325 22.4827 2.69839 22.3719C2.44722 22.3539 2.28657 22.4287 2.14895 22.6401C1.22854 24.0534 0.879227 25.5837 1.15978 27.2549C1.19041 27.4374 1.20218 27.6652 1.11811 27.8119C1.048 27.9343 0.796718 28.0574 0.675246 28.0199C0.51179 27.9693 0.312915 27.785 0.273119 27.6228C-0.00639182 26.4866 0.0261161 25.3378 0.385531 24.2324C0.616286 23.5229 1.00039 22.8642 1.30032 22.1761C1.35095 22.06 1.38345 21.8652 1.3222 21.7815C0.201757 20.2523 -0.0476445 18.513 0.12925 16.694C0.297603 14.964 0.853706 13.3527 2.01019 12.0276C2.48847 11.4795 3.11833 11.0592 3.70225 10.6107C3.86425 10.4863 3.94509 10.3957 3.94593 10.1838C3.95728 6.96922 6.00345 4.51009 9.1462 3.89637C9.29413 3.86752 9.44863 3.71354 9.53957 3.57748C10.4799 2.1717 11.6797 1.06575 13.2279 0.36348C13.5547 0.215234 13.9055 0.120224 14.2452 0.000731232C14.6097 1.98384e-06 14.9743 0 15.339 0ZM18.5145 21.9323C19.5332 21.9323 20.5174 21.9323 21.5086 21.9323C21.5086 20.6548 21.5086 19.4009 21.5086 18.1393C20.4985 18.1393 19.5165 18.1393 18.5145 18.1393C18.5145 19.4085 18.5145 20.6535 18.5145 21.9323ZM23.388 4.89472C23.3904 4.49571 23.069 4.17411 22.6716 4.17786C22.2849 4.18151 21.9808 4.48029 21.97 4.86732C21.9589 5.26705 22.2704 5.5999 22.6636 5.60834C23.0534 5.61657 23.3857 5.28924 23.388 4.89472ZM26.7411 28.7545C27.1373 28.7459 27.457 28.4112 27.4416 28.0211C27.4261 27.6282 27.0896 27.3224 26.6907 27.3388C26.305 27.3546 26.0157 27.6616 26.0185 28.0521C26.0214 28.4567 26.3367 28.7632 26.7411 28.7545ZM23.3881 35.1873C23.3918 34.7918 23.0677 34.4619 22.6761 34.4625C22.284 34.4632 21.9646 34.792 21.9693 35.19C21.9741 35.5798 22.2689 35.8778 22.6591 35.8867C23.0628 35.8959 23.3845 35.5873 23.3881 35.1873ZM27.4416 12.0333C27.4475 11.6415 27.1234 11.3178 26.7249 11.3176C26.3319 11.3175 26.0326 11.6046 26.0186 11.9954C26.0041 12.3986 26.3087 12.7259 26.7068 12.7351C27.1013 12.7441 27.4355 12.425 27.4416 12.0333Z" fill="white"/>
<path fill-rule="evenodd" clip-rule="evenodd" d="M10.7798 17.9548C9.62189 18.1833 8.52146 18.0727 7.43884 17.7361C7.29017 17.6899 7.14276 17.638 6.99837 17.5798C6.71125 17.4644 6.58614 17.2431 6.69771 16.9569C6.80741 16.6754 7.03295 16.6193 7.33809 16.6836C8.10922 16.8464 8.88348 17.0381 9.66544 17.0939C10.516 17.1546 11.2762 16.8572 11.8248 16.1449C12.0216 15.8894 12.2845 15.8302 12.5382 16.0427C12.7764 16.2425 12.7919 16.5434 12.5683 16.7299C11.9869 17.2149 11.8288 17.8863 11.5893 18.5547C11.1784 19.7011 10.2835 20.2986 9.07266 20.4031C8.69356 20.4357 8.46593 20.2626 8.46353 19.9649C8.46083 19.6021 8.68856 19.483 9.01713 19.4497C9.9189 19.358 10.5199 18.857 10.7798 17.9548Z" fill="white"/>
<path fill-rule="evenodd" clip-rule="evenodd" d="M11.229 24.7483C11.2903 24.5768 11.3038 24.4814 11.3528 24.4107C12.1454 23.2637 13.1588 22.487 14.6263 22.4927C15.0185 22.4943 15.2658 22.6911 15.2348 22.9862C15.1979 23.336 14.9673 23.4495 14.6333 23.4467C13.5718 23.4376 12.8341 24.0146 12.233 24.8157C12.076 25.0249 11.9065 25.231 11.6316 25.1176C11.4668 25.0497 11.3505 24.8647 11.229 24.7483Z" fill="white"/>
<path fill-rule="evenodd" clip-rule="evenodd" d="M12.4771 13.0286C12.1325 13.0226 11.8348 12.7109 11.846 12.3681C11.8575 12.0196 12.1679 11.7333 12.5153 11.7507C12.8505 11.7675 13.1287 12.0562 13.1283 12.3868C13.1279 12.7302 12.819 13.0346 12.4771 13.0286Z" fill="white"/>
<path fill-rule="evenodd" clip-rule="evenodd" d="M7.13343 26.5371C7.13854 26.8858 6.846 27.1831 6.49721 27.184C6.1429 27.1849 5.8635 26.8988 5.86673 26.5384C5.86985 26.1909 6.13071 25.9257 6.4769 25.9178C6.83913 25.9095 7.12812 26.1822 7.13343 26.5371Z" fill="white"/>
<path fill-rule="evenodd" clip-rule="evenodd" d="M2.22796 29.6081C2.23775 29.919 2.01439 30.1565 1.70748 30.1616C1.40307 30.1667 1.15357 29.9302 1.16388 29.6279C1.17482 29.3087 1.35807 29.1253 1.66862 29.0903C1.9597 29.0576 2.21848 29.3089 2.22796 29.6081Z" fill="white"/>
<path fill-rule="evenodd" clip-rule="evenodd" d="M30.3343 21.2025C31.345 21.7086 31.7399 22.5114 31.4292 23.3891C31.188 24.0705 30.5169 24.5345 29.8076 24.5104C29.0545 24.4846 28.4004 23.9571 28.2247 23.2332C28.048 22.5062 28.3441 21.7498 29.0038 21.4026C29.3036 21.2449 29.4003 21.0696 29.3816 20.7433C29.3519 20.2249 29.367 19.7035 29.3767 19.1835C29.3807 18.9705 29.3354 18.8405 29.1166 18.7315C28.3646 18.3574 28.0279 17.5937 28.2292 16.811C28.4135 16.0948 29.0888 15.5673 29.8332 15.5581C30.602 15.5486 31.2994 16.0964 31.4832 16.8539C31.6649 17.6029 31.3 18.3559 30.586 18.7536C30.4767 18.8144 30.349 18.9621 30.3454 19.0733C30.3236 19.7744 30.3343 20.4766 30.3343 21.2025ZM30.567 22.8491C30.5787 22.4618 30.2524 22.1219 29.862 22.1143C29.4834 22.1071 29.1635 22.4075 29.1444 22.7885C29.1239 23.1989 29.4147 23.5205 29.8197 23.5349C30.2194 23.5492 30.5551 23.2412 30.567 22.8491ZM29.8524 17.9584C30.2384 17.9564 30.5728 17.6158 30.5673 17.2303C30.5616 16.8391 30.2268 16.5227 29.8296 16.5333C29.4393 16.5437 29.1455 16.8431 29.1424 17.2332C29.1395 17.6308 29.4621 17.9604 29.8524 17.9584Z" fill="white"/>
<path fill-rule="evenodd" clip-rule="evenodd" d="M19.4656 1.53612C19.1706 1.53237 18.9253 1.27567 18.9338 0.979492C18.9425 0.678313 19.1923 0.449434 19.4976 0.462873C19.7807 0.475375 20.0137 0.713838 20.015 0.992203C20.0162 1.28369 19.7578 1.53976 19.4656 1.53612Z" fill="white"/>
</svg>
