<svg width="30" height="40" viewBox="0 0 30 40" fill="none" xmlns="http://www.w3.org/2000/svg">
<path fill-rule="evenodd" clip-rule="evenodd" d="M15.3372 0.000584352C15.8858 0.189818 16.4286 0.428818 16.6827 0.975676C16.868 1.3744 16.9543 1.83175 17.0135 2.27246C17.0672 2.67381 17.0249 3.08802 17.1117 3.50924C17.2721 2.98361 17.4276 2.45633 17.5945 1.93265C17.8576 1.10745 18.4056 0.595067 19.2676 0.436512C20.6199 0.18787 21.8858 1.45689 21.5888 2.80402C21.419 3.5742 21.1704 4.32802 20.9354 5.08242C20.8704 5.29094 20.9061 5.40644 21.0688 5.54494C21.414 5.83896 21.7282 6.16971 22.0749 6.46188C22.1752 6.54632 22.3491 6.60057 22.4782 6.58362C23.1594 6.4948 23.8359 6.37131 24.516 6.27372C26.0715 6.0506 27.525 6.9806 27.8676 8.41002C28.238 9.95457 27.4548 11.3607 25.9125 11.9223C25.8549 11.9432 25.8012 11.975 25.7682 11.9908C26.1592 12.5421 26.5736 13.058 26.9138 13.6189C27.799 15.0786 28.2042 16.6996 28.127 18.3812C28.0155 20.8049 28.3619 23.1684 28.7749 25.5362C29.1252 27.5443 29.4338 29.5586 29.3756 31.608C29.3724 31.7246 29.4063 31.8789 29.3459 31.9499C29.1978 32.1235 29.0117 32.3665 28.8277 32.3785C28.6467 32.3904 28.4365 32.1665 28.2659 32.0159C28.2056 31.9627 28.2067 31.8193 28.2099 31.7181C28.2885 29.1938 27.7948 26.7328 27.3776 24.2649C27.0606 22.391 26.9051 20.5153 26.9604 18.6085C27.0299 16.2084 26.3042 14.0852 24.4488 12.4412C24.2396 12.2559 24.0498 12.2044 23.7841 12.2789C22.7896 12.5578 21.7905 12.8206 20.7932 13.0893C20.7622 13.1614 20.7311 13.2335 20.7003 13.3056C20.833 13.3823 20.9886 13.4355 21.0951 13.5391C22.9141 15.3111 24.1551 17.4156 24.7461 19.8961C24.7836 20.0533 24.9065 20.2122 25.0319 20.3226C25.4398 20.682 25.8855 20.9999 26.2815 21.3713C26.6022 21.6719 26.603 22.0116 26.3531 22.2629C26.0988 22.5186 25.8109 22.4933 25.4643 22.1842C25.3332 22.0673 25.2033 21.9489 24.9909 21.7572C24.9909 22.362 25.0088 22.8633 24.9849 23.3626C24.9672 23.733 24.71 23.9551 24.3832 23.9448C24.0557 23.9344 23.8418 23.6968 23.8283 23.322C23.8236 23.1923 23.8398 23.0614 23.8294 22.9326C23.7539 22.0039 23.6931 21.0736 23.5859 20.1485C23.5434 19.7823 23.3946 19.4284 23.2986 19.0848C22.7461 19.6834 22.2203 20.2715 21.6696 20.8355C21.5451 20.9629 21.3277 21.0827 21.1657 21.0679C20.9899 21.0517 20.7259 20.9032 20.6861 20.7605C20.6303 20.5601 20.6778 20.2616 20.8018 20.0945C21.0625 19.7433 21.4157 19.4628 21.706 19.1314C22.8282 17.8508 22.8385 17.7084 21.8934 16.2966C21.6285 15.9009 21.3255 15.5307 20.9793 15.0676C21.033 15.6061 21.1039 16.0326 21.1131 16.4604C21.1448 17.9451 20.0646 19.152 18.5513 19.3498C17.1448 19.5337 15.7496 18.5835 15.4043 17.1954C15.2917 16.7429 15.2265 16.2783 15.1065 15.8281C14.692 14.2721 13.8479 13.5407 12.2525 13.3326C11.9973 13.2993 11.7408 13.2745 11.4149 13.2379C11.2382 14.0222 11.0549 14.7872 10.8947 15.557C10.638 16.7907 9.71401 17.7339 8.55407 17.9234C7.28573 18.1306 6.13854 17.5914 5.48971 16.4776C5.13472 15.8683 5.06333 15.2079 5.15897 14.5215C5.1838 14.3434 5.21838 14.1667 5.16452 13.9452C4.88695 14.4146 4.57841 14.8684 4.33756 15.3558C3.40922 17.2344 3.03095 19.2292 3.16126 21.3177C3.19924 21.9252 3.283 22.5296 3.34338 23.1356C3.39169 23.6204 3.23508 23.8882 2.87969 23.9366C2.51292 23.9867 2.26603 23.7726 2.19142 23.3114C1.66453 20.0587 2.02498 16.9506 3.71912 14.0653C3.90241 13.7533 4.11366 13.4578 4.3549 13.0888C4.0636 13.0888 3.81583 13.088 3.56797 13.0889C1.71479 13.0967 0.431739 11.7551 0.530203 9.91162C0.608799 8.43944 1.89642 7.27852 3.50895 7.25456C4.8852 7.23411 6.26193 7.23586 7.63818 7.24268C7.88264 7.24394 8.05386 7.1894 8.19001 6.9767C8.31526 6.78114 8.45064 6.5733 8.63071 6.4352C9.1503 6.03706 9.21477 5.59159 8.96895 4.9933C8.71904 4.38489 8.56624 3.735 8.39161 3.09756C8.07119 1.92827 8.65652 0.816927 9.74926 0.491442C10.8486 0.164106 11.9304 0.756641 12.3182 1.9124C12.5016 2.45886 12.6596 3.0139 12.9108 3.55258C12.9108 3.11996 12.9091 2.68735 12.9111 2.25463C12.9167 1.09518 13.3724 0.456575 14.4675 0.0664216C14.5013 0.0544423 14.528 0.022595 14.558 0C14.8178 0.000584354 15.0775 0.000584352 15.3372 0.000584352ZM20.9207 6.93131C20.5804 6.65404 20.3025 6.42117 20.0178 6.19717C19.5813 5.85377 19.5338 5.72462 19.6899 5.19939C19.9153 4.44148 20.1505 3.68649 20.3671 2.92605C20.4227 2.73059 20.4659 2.51457 20.4417 2.31696C20.3915 1.90977 20.0544 1.62353 19.6477 1.58428C19.2264 1.54357 18.8573 1.80673 18.7026 2.29291C18.4826 2.98459 18.2867 3.68377 18.0713 4.37691C17.9269 4.84147 17.6926 4.97577 17.2198 4.88598C16.9906 4.84244 16.7625 4.79287 16.5339 4.74583C15.9958 4.6349 15.863 4.47683 15.8566 3.92812C15.8491 3.29225 15.8728 2.65443 15.831 2.02089C15.7967 1.5015 15.3963 1.15916 14.9393 1.17475C14.4504 1.1914 14.0995 1.56052 14.082 2.10367C14.0678 2.54476 14.078 2.98663 14.0779 3.42811C14.0777 4.6127 14.0778 4.6127 12.9346 4.91578C12.2198 5.10521 12.0365 5.00353 11.826 4.30425C11.6205 3.62163 11.4295 2.93414 11.2024 2.25872C10.9874 1.61934 10.3511 1.39115 9.83857 1.7403C9.50198 1.96957 9.38686 2.3605 9.53276 2.85671C9.81072 3.80181 10.0942 4.74534 10.3856 5.68635C10.4844 6.00541 10.4313 6.26486 10.1905 6.50133C9.91279 6.77383 9.63327 7.04789 9.3856 7.34708C7.60799 9.49361 6.79019 12.0475 6.31385 14.7321C6.12754 15.7826 6.76886 16.6156 7.79586 16.794C8.69606 16.9504 9.50832 16.2983 9.75754 15.3088C10.0513 14.1425 10.3618 12.9758 10.7586 11.8419C10.9824 11.2027 11.3459 10.5962 11.7311 10.0327C12.979 8.20667 14.7137 7.6712 16.8033 8.3923C16.97 8.44986 17.2017 8.41733 17.3716 8.34847C17.7911 8.17852 18.1876 7.95247 18.6021 7.76879C19.0218 7.58297 19.3445 7.68046 19.4954 8.01042C19.6447 8.33717 19.4862 8.62925 19.0707 8.83212C18.57 9.07648 18.0298 9.27253 17.59 9.60113C16.981 10.0561 16.4601 10.1028 15.8445 9.63405C15.3451 9.25393 14.7604 9.14874 14.1563 9.41813C12.9785 9.94337 12.4466 11.0008 11.9106 12.0692C11.9832 12.1071 12.0047 12.1258 12.0282 12.1292C12.118 12.1425 12.2085 12.1519 12.2988 12.1608C14.154 12.3415 15.4599 13.2592 16.076 15.0446C16.2733 15.6167 16.3642 16.2255 16.504 16.8175C16.6451 17.4153 16.9986 17.8421 17.5643 18.074C18.7734 18.5697 20.1212 17.5958 19.936 16.2929C19.8041 15.3646 19.5131 14.4545 19.2417 13.5518C19.045 12.8973 19.0651 12.6995 19.6968 12.4087C20.3427 12.1114 20.9977 11.8013 21.682 11.6274C22.9103 11.315 24.164 11.1035 25.4059 10.8439C26.2117 10.6755 26.7731 9.99791 26.7906 9.18897C26.8083 8.37438 26.2924 7.62874 25.4835 7.48567C24.9873 7.39792 24.4485 7.44301 23.9453 7.52697C22.9747 7.68912 22.0157 7.92043 21.0522 8.12447C20.679 8.20355 20.3988 8.07256 20.3076 7.75185C20.2099 7.40883 20.3584 7.17499 20.6697 7.03075C20.7252 7.00494 20.7838 6.98517 20.9207 6.93131ZM7.16778 8.42979C5.86243 8.42979 4.57744 8.3886 3.29663 8.44304C2.30547 8.48521 1.63775 9.30856 1.68459 10.2822C1.72871 11.2009 2.46919 11.9018 3.43064 11.9183C3.9365 11.9269 4.44284 11.9123 4.94889 11.9046C5.74809 11.8924 5.74741 11.8909 6.00619 11.1519C6.0618 10.9931 6.11663 10.8332 6.18354 10.679C6.50717 9.93353 6.8348 9.18965 7.16778 8.42979Z" fill="white"/>
<path fill-rule="evenodd" clip-rule="evenodd" d="M19.9952 39.8847C17.2884 39.7883 14.8467 38.8636 12.5848 37.4418C8.9022 35.127 6.05445 32.0153 3.98739 28.1978C3.5204 27.3355 3.17641 26.4054 2.79346 25.4991C2.59439 25.0279 2.69198 24.7044 3.0271 24.5643C3.3897 24.4127 3.69999 24.583 3.87276 25.0713C4.49568 26.8317 5.36491 28.4635 6.44226 29.9833C8.63875 33.0822 11.3462 35.6157 14.7667 37.3175C16.6208 38.2399 18.5816 38.8249 20.6837 38.7137C22.131 38.6373 23.5349 38.3288 24.8452 37.6844C26.4011 36.9193 27.3916 35.6779 27.8705 34.019C27.9064 33.8945 27.9305 33.7657 27.9761 33.6451C28.101 33.314 28.3741 33.1618 28.6762 33.2452C28.9956 33.3332 29.165 33.6183 29.0818 33.9751C28.8125 35.1309 28.3169 36.1772 27.5301 37.0732C26.3801 38.3826 24.8868 39.1129 23.2261 39.4898C22.1704 39.7293 21.0844 39.8345 20.012 40C20.0065 39.9614 20.0008 39.9231 19.9952 39.8847Z" fill="white"/>
<path fill-rule="evenodd" clip-rule="evenodd" d="M11.3696 27.703C11.9448 28.3431 12.489 29.0149 13.1045 29.6138C13.6603 30.1548 14.2936 30.6162 14.8934 31.1121C14.9733 31.1782 15.0607 31.2359 15.1381 31.3047C15.428 31.5624 15.4776 31.8656 15.2771 32.1275C15.0794 32.3858 14.7439 32.4409 14.4441 32.2305C14.062 31.9624 13.6966 31.6705 13.3255 31.3868C13.1962 31.2879 13.0713 31.1831 12.8473 31.0027C12.8782 31.4733 12.9026 31.8278 12.9246 32.1825C12.9559 32.6906 12.7823 32.9575 12.4072 32.9806C12.0331 33.0038 11.7899 32.7679 11.7664 32.2651C11.735 31.5928 11.7608 30.918 11.7438 30.2447C11.7399 30.0895 11.7061 29.896 11.6098 29.7885C10.7039 28.7779 9.92528 27.6813 9.30051 26.4759C9.27753 26.4316 9.24149 26.3942 9.15608 26.2783C9.0805 26.7212 9.01622 27.093 8.95379 27.465C8.9237 27.6441 8.90344 27.8251 8.86751 28.0028C8.78862 28.392 8.52683 28.5949 8.1878 28.5383C7.85375 28.4826 7.64776 28.1976 7.71847 27.8096C7.89952 26.8155 8.11525 25.8278 8.29114 24.8329C8.33837 24.5659 8.3334 24.2746 8.28208 24.0081C8.11563 23.1441 7.91608 22.2865 7.73093 21.4261C7.7173 21.3631 7.7135 21.2975 7.70912 21.2328C7.67581 20.742 7.85871 20.4511 8.22247 20.4142C8.60737 20.3751 8.82339 20.6307 8.87793 21.1486C9.06794 22.9521 9.61061 24.6459 10.5028 26.2237C10.5613 26.3268 10.7383 26.4147 10.8635 26.4192C11.4341 26.44 12.0059 26.4262 12.5773 26.4301C12.7058 26.431 12.8379 26.4382 12.9622 26.4681C13.2718 26.5427 13.4225 26.7533 13.397 27.0674C13.3714 27.3829 13.1809 27.573 12.8686 27.5852C12.3943 27.6036 11.9187 27.59 11.4437 27.59C11.4189 27.6277 11.3942 27.6654 11.3696 27.703Z" fill="white"/>
</svg>
