<svg width="32" height="30" viewBox="0 0 32 30" fill="none" xmlns="http://www.w3.org/2000/svg">
<path fill-rule="evenodd" clip-rule="evenodd" d="M6.91894 7.99214C6.91894 7.89462 6.9184 7.82278 6.91903 7.75094C6.92461 7.12551 7.05927 6.99724 7.71203 6.99699C8.59869 6.99674 9.48623 6.97349 10.3718 7.00341C11.2908 7.03442 11.8748 6.63519 12.2567 5.88183C12.3332 5.73098 12.5038 5.57245 12.6675 5.52178C12.9428 5.43652 13.1573 5.5852 13.2712 5.83699C13.6432 6.65944 14.2845 7.07092 15.2527 6.99924C15.462 6.98374 15.6738 6.99349 15.8843 6.99791C16.2961 7.00658 16.4859 7.18777 16.4959 7.57858C16.4994 7.71293 16.4964 7.84745 16.5685 8.03806C16.6462 7.97289 16.7756 7.91871 16.7943 7.84103C17.2338 6.01393 17.147 4.26101 15.7661 2.77596C14.2775 1.17473 12.3768 0.61931 10.2131 1.2144C8.0639 1.80557 6.80487 3.22644 6.44714 5.31558C6.38611 5.67205 6.40464 6.04135 6.39701 6.40482C6.38939 6.76429 6.22147 6.96699 5.89762 6.98499C5.57023 7.00324 5.35885 6.79321 5.33251 6.42324C5.11687 3.4023 7.31854 0.699987 10.4714 0.115985C14.7305 -0.672964 18.5673 2.67578 18.0504 6.73471C17.9952 7.16785 17.907 7.59733 17.851 8.03048C17.8401 8.11466 17.878 8.24384 17.9435 8.29127C18.6395 8.79559 18.7437 9.45836 18.5249 10.1978C18.2471 11.1363 17.5694 11.7035 16.5757 11.924C16.3171 11.9814 16.2116 12.0982 16.0839 12.303C15.7843 12.7838 15.416 13.2263 15.0875 13.6918C15.0029 13.8117 14.9135 13.958 14.9105 14.0939C14.8934 14.8434 14.9109 15.5936 14.8961 16.3431C14.8925 16.523 14.8451 16.7169 14.7609 16.878C14.1597 18.0276 12.7212 18.668 11.2256 18.4766C10.1181 18.3347 9.22438 17.8822 8.6872 16.9287C8.5836 16.7448 8.52861 16.5168 8.52311 16.3075C8.50368 15.5685 8.52462 14.8286 8.50732 14.0896C8.50413 13.9539 8.4133 13.8086 8.32983 13.688C7.98797 13.1941 7.61578 12.7178 7.29317 12.2135C7.18983 12.0521 7.09741 11.9717 6.90493 11.9379C5.68625 11.7241 4.84607 10.8067 4.79471 9.65022C4.75266 8.70299 5.47665 7.99364 6.48705 7.99214C6.61797 7.99197 6.74899 7.99214 6.91894 7.99214ZM15.4992 7.97789C14.3488 8.08307 13.4501 7.8047 12.7635 7.01166C12.1065 7.78161 11.2728 8.03781 10.2936 8.00239C9.53414 7.97497 8.77272 7.99697 8.04199 7.99697C8.04199 9.04738 7.94992 10.0723 8.06301 11.0768C8.24378 12.6813 9.76343 13.9123 11.486 13.9923C13.2753 14.0753 14.9461 13.0239 15.2689 11.42C15.4904 10.3202 15.43 9.17048 15.4992 7.97789ZM13.8367 14.5404C13.1233 14.8426 12.4273 15.0451 11.704 14.9862C10.9926 14.9283 10.2905 14.7685 9.57982 14.6528C9.57982 15.1499 9.57413 15.7006 9.58478 16.251C9.58682 16.3577 9.63268 16.4752 9.69309 16.5677C10.5134 17.8218 12.9221 17.8173 13.7305 16.5607C13.7852 16.4757 13.8304 16.3699 13.8321 16.2729C13.8416 15.7121 13.8367 15.1511 13.8367 14.5404ZM6.91832 10.8677C6.91832 10.3286 6.92284 9.7929 6.91255 9.25733C6.91122 9.1914 6.84673 9.10405 6.78428 9.06555C6.46771 8.87027 5.9653 9.06221 5.87278 9.40509C5.71729 9.98118 6.2629 10.7593 6.91832 10.8677ZM16.4978 10.8731C17.1559 10.7421 17.6855 9.99518 17.548 9.43052C17.4668 9.09697 17.0059 8.88185 16.6834 9.04538C16.5979 9.0888 16.5088 9.2109 16.506 9.29925C16.4892 9.81557 16.4978 10.3326 16.4978 10.8731Z" fill="white"/>
<path fill-rule="evenodd" clip-rule="evenodd" d="M29.7994 3.9993C29.7994 4.20175 29.809 4.35811 29.7973 4.51289C29.7756 4.79726 29.5707 4.98204 29.285 4.99021C28.9897 4.99871 28.7497 4.8056 28.7439 4.51005C28.7309 3.83328 28.731 3.1561 28.7439 2.47941C28.7496 2.17512 28.971 1.99409 29.2771 1.99642C29.5806 1.99867 29.7804 2.18395 29.7987 2.49158C29.808 2.64627 29.8003 2.80188 29.8003 2.99949C29.9914 2.99949 30.1643 2.99691 30.3369 2.99991C31.2215 3.01549 31.9204 3.65842 31.9274 4.4908C31.9379 5.73007 31.9497 6.96983 31.924 8.20868C31.87 10.8115 29.6508 13.111 26.9043 13.4391C26.8179 13.4495 26.7324 13.4657 26.6089 13.4851C26.6089 13.604 26.6089 13.7148 26.6089 13.8255C26.6088 16.0022 26.6102 18.1788 26.6085 20.3555C26.6072 21.9367 25.4779 22.9974 23.7918 22.9991C21.6194 23.0015 19.4469 23.0031 17.2744 22.9948C17.042 22.9939 16.9342 23.0541 16.8427 23.2654C16.4565 24.1572 15.4753 24.6445 14.5023 24.4566C13.4828 24.2597 12.7661 23.4385 12.7745 22.4769C12.7828 21.5308 13.5004 20.7316 14.5143 20.539C15.4841 20.3548 16.4521 20.8543 16.8622 21.7366C16.9101 21.8397 17.031 21.9877 17.1192 21.9884C18.8359 22.0034 20.5526 21.9995 22.3277 21.9995C22.2765 21.7154 22.247 21.4516 22.1803 21.1964C21.5409 18.7478 19.3061 17.0619 16.6243 17.0022C16.3814 16.9968 16.1578 16.9736 16.0273 16.7459C15.8138 16.3733 16.0835 15.9934 16.574 16.0022C18.4939 16.0367 20.1357 16.6957 21.4715 17.9911C22.5548 19.0415 23.1831 20.3043 23.3593 21.7617C23.368 21.8326 23.3888 21.9022 23.4029 21.9677C24.505 22.126 25.3077 21.6796 25.5088 20.8027C25.532 20.702 25.5424 20.5965 25.5425 20.4933C25.5443 18.2228 25.5442 15.9525 25.5435 13.6821C25.5435 13.6215 25.5338 13.561 25.531 13.5276C24.9991 13.3909 24.4758 13.2949 23.9823 13.1231C21.7469 12.345 20.2397 10.3066 20.2242 8.06675C20.2164 6.93166 20.222 5.79641 20.2227 4.66124C20.2235 3.60683 20.8705 3.00283 22.0004 2.99941C22.0997 2.99916 22.199 2.99941 22.3521 2.99941C22.3521 2.82822 22.3456 2.66661 22.3535 2.50575C22.3689 2.19179 22.5592 2.00567 22.8616 1.99851C23.1786 1.99101 23.4059 2.18278 23.411 2.50125C23.422 3.1676 23.4217 3.83437 23.411 4.50072C23.4061 4.80768 23.1934 4.99437 22.8908 4.99829C22.5752 5.00246 22.3687 4.80809 22.3532 4.4843C22.3463 4.33911 22.3519 4.19342 22.3519 4.00731C22.1357 4.00731 21.9276 3.98597 21.7266 4.01256C21.468 4.04689 21.2934 4.21184 21.295 4.45771C21.3041 5.87283 21.2244 7.29763 21.3712 8.70092C21.5979 10.8669 23.7048 12.4987 26.0742 12.4992C28.4415 12.4996 30.52 10.8629 30.7894 8.70359C30.9036 7.78829 30.8491 6.85407 30.8654 5.92834C30.873 5.50145 30.868 5.07438 30.8664 4.6474C30.8644 4.15749 30.6932 4.00081 30.1638 3.99939C30.0554 3.99906 29.9469 3.9993 29.7994 3.9993ZM15.9652 22.5106C15.9723 21.9601 15.5156 21.5126 14.9336 21.4999C14.3328 21.4869 13.846 21.9242 13.8387 22.4835C13.8314 23.0417 14.3114 23.4982 14.9048 23.4974C15.4856 23.4964 15.9581 23.0567 15.9652 22.5106Z" fill="white"/>
<path fill-rule="evenodd" clip-rule="evenodd" d="M18.6262 28.9771C18.6262 27.5607 18.6261 26.1661 18.6264 24.7716C18.6264 24.6675 18.6202 24.5625 18.6316 24.4594C18.6638 24.1674 18.8847 23.9874 19.1907 23.995C19.4806 24.0021 19.6767 24.1789 19.6856 24.4774C19.6985 24.9145 19.6896 25.3522 19.6911 25.7896C19.6914 25.8501 19.6976 25.9105 19.7019 25.984C20.5822 25.984 21.4424 25.984 22.3517 25.984C22.3517 25.5007 22.3525 25.0159 22.3513 24.5311C22.3506 24.2571 22.476 24.0671 22.768 24.0067C23.1413 23.9294 23.4118 24.1608 23.4136 24.5637C23.4182 25.6156 23.4153 26.6676 23.4154 27.7195C23.4154 28.2611 23.4168 28.8028 23.4149 29.3444C23.4133 29.8323 23.2361 29.9994 22.7145 29.9995C18.1034 30.0002 13.4922 29.9999 8.88105 29.9999C6.17645 29.9999 3.47185 30 0.767243 29.9998C0.156442 29.9997 0.00120645 29.8541 0.00111775 29.2814C0.000762942 27.0525 -0.00145417 24.8237 0.00156169 22.5948C0.00599678 19.307 2.34409 16.6739 5.78687 16.0877C6.13388 16.0286 6.49152 16.0144 6.84518 16.0036C7.22828 15.992 7.44117 16.1716 7.4527 16.478C7.46476 16.7993 7.25213 16.99 6.85564 16.9988C5.2025 17.0356 3.79073 17.5975 2.651 18.7269C1.66676 19.7023 1.12861 20.8764 1.08009 22.2145C1.03494 23.4612 1.07042 24.7107 1.07042 25.9793C1.95451 25.9793 2.82255 25.9793 3.72642 25.9793C3.72642 25.5177 3.72402 25.0627 3.72712 24.6077C3.72987 24.1999 3.91252 23.9951 4.26271 23.9972C4.61131 23.9994 4.78942 24.2034 4.78995 24.6145C4.79164 26.0612 4.79057 27.5078 4.79057 28.9771C9.39987 28.9771 13.9925 28.9771 18.6262 28.9771ZM3.70992 28.9876C3.70992 28.312 3.70992 27.6711 3.70992 27.0175C2.82654 27.0175 1.9593 27.0175 1.08718 27.0175C1.08718 27.6839 1.08718 28.3322 1.08718 28.9876C1.96861 28.9876 2.82787 28.9876 3.70992 28.9876ZM22.337 27.0155C21.4402 27.0155 20.5809 27.0155 19.7104 27.0155C19.7104 27.6797 19.7104 28.328 19.7104 28.9785C20.5976 28.9785 21.4647 28.9785 22.337 28.9785C22.337 28.3162 22.337 27.6754 22.337 27.0155Z" fill="white"/>
</svg>
